<svg width="30" height="30" viewBox="0 0 30 30" fill="none" xmlns="http://www.w3.org/2000/svg">
<path d="M21.2499 13.7499H11.7624L15.8874 9.63743C16.1228 9.40205 16.255 9.0828 16.255 8.74993C16.255 8.41705 16.1228 8.09781 15.8874 7.86243C15.652 7.62705 15.3327 7.49481 14.9999 7.49481C14.667 7.49481 14.3478 7.62705 14.1124 7.86243L7.86237 14.1124C7.74857 14.2313 7.65936 14.3715 7.59987 14.5249C7.47485 14.8293 7.47485 15.1706 7.59987 15.4749C7.65936 15.6284 7.74857 15.7685 7.86237 15.8874L14.1124 22.1374C14.2286 22.2546 14.3668 22.3476 14.5192 22.411C14.6715 22.4745 14.8349 22.5072 14.9999 22.5072C15.1649 22.5072 15.3283 22.4745 15.4806 22.411C15.6329 22.3476 15.7712 22.2546 15.8874 22.1374C16.0045 22.0212 16.0975 21.883 16.161 21.7306C16.2244 21.5783 16.2571 21.4149 16.2571 21.2499C16.2571 21.0849 16.2244 20.9215 16.161 20.7692C16.0975 20.6169 16.0045 20.4786 15.8874 20.3624L11.7624 16.2499H21.2499C21.5814 16.2499 21.8993 16.1182 22.1338 15.8838C22.3682 15.6494 22.4999 15.3314 22.4999 14.9999C22.4999 14.6684 22.3682 14.3505 22.1338 14.116C21.8993 13.8816 21.5814 13.7499 21.2499 13.7499Z" fill="#FFC900"/>
</svg>
