<svg width="30" height="30" viewBox="0 0 30 30" fill="none" xmlns="http://www.w3.org/2000/svg">
<path d="M21.2496 13.75H11.7621L15.8871 9.63749C16.1225 9.40211 16.2547 9.08286 16.2547 8.74999C16.2547 8.41711 16.1225 8.09787 15.8871 7.86249C15.6517 7.62711 15.3325 7.49487 14.9996 7.49487C14.6668 7.49487 14.3475 7.62711 14.1121 7.86249L7.86213 14.1125C7.74833 14.2314 7.65912 14.3715 7.59963 14.525C7.4746 14.8293 7.4746 15.1707 7.59963 15.475C7.65912 15.6284 7.74833 15.7686 7.86213 15.8875L14.1121 22.1375C14.2283 22.2546 14.3666 22.3476 14.5189 22.4111C14.6712 22.4746 14.8346 22.5072 14.9996 22.5072C15.1646 22.5072 15.328 22.4746 15.4803 22.4111C15.6327 22.3476 15.7709 22.2546 15.8871 22.1375C16.0043 22.0213 16.0973 21.883 16.1607 21.7307C16.2242 21.5784 16.2569 21.415 16.2569 21.25C16.2569 21.085 16.2242 20.9216 16.1607 20.7693C16.0973 20.6169 16.0043 20.4787 15.8871 20.3625L11.7621 16.25H21.2496C21.5811 16.25 21.8991 16.1183 22.1335 15.8839C22.3679 15.6495 22.4996 15.3315 22.4996 15C22.4996 14.6685 22.3679 14.3505 22.1335 14.1161C21.8991 13.8817 21.5811 13.75 21.2496 13.75Z" fill="#32292F"/>
</svg>
