<svg width="30" height="30" viewBox="0 0 30 30" fill="none" xmlns="http://www.w3.org/2000/svg">
<path d="M21.2501 11.4625C21.0159 11.2297 20.6991 11.099 20.3689 11.099C20.0386 11.099 19.7218 11.2297 19.4876 11.4625L15.0001 15.8875L10.5751 11.4625C10.3409 11.2297 10.0241 11.099 9.69387 11.099C9.36364 11.099 9.04682 11.2297 8.81262 11.4625C8.69546 11.5787 8.60247 11.7169 8.539 11.8693C8.47554 12.0216 8.44287 12.185 8.44287 12.35C8.44287 12.515 8.47554 12.6784 8.539 12.8307C8.60247 12.983 8.69546 13.1213 8.81262 13.2375L14.1126 18.5375C14.2288 18.6547 14.3671 18.7476 14.5194 18.8111C14.6717 18.8746 14.8351 18.9072 15.0001 18.9072C15.1651 18.9072 15.3285 18.8746 15.4808 18.8111C15.6332 18.7476 15.7714 18.6547 15.8876 18.5375L21.2501 13.2375C21.3673 13.1213 21.4603 12.983 21.5237 12.8307C21.5872 12.6784 21.6199 12.515 21.6199 12.35C21.6199 12.185 21.5872 12.0216 21.5237 11.8693C21.4603 11.7169 21.3673 11.5787 21.2501 11.4625Z" fill="black"/>
</svg>
