<svg width="24" height="24" viewBox="0 0 24 24" fill="none" xmlns="http://www.w3.org/2000/svg">
<path d="M19.148 7.971C18.789 7.372 18.132 7 17.434 7H15V5C15 4.447 14.553 4 14 4H4C2.897 4 2 4.897 2 6V16C2 16.746 2.416 17.391 3.023 17.734C3.146 19.553 4.65 21 6.5 21C8.259 21 9.704 19.691 9.949 18H13.051C13.296 19.691 14.741 21 16.5 21C18.259 21 19.704 19.691 19.949 18H20C21.103 18 22 17.103 22 16V13C22 12.818 21.951 12.641 21.857 12.485L19.148 7.971ZM15 9H17.434L19.234 12H15V9ZM6.5 19C5.673 19 5 18.327 5 17.5C5 16.673 5.673 16 6.5 16C7.327 16 8 16.673 8 17.5C8 18.327 7.327 19 6.5 19ZM16.5 19C15.673 19 15 18.327 15 17.5C15 16.673 15.673 16 16.5 16C17.327 16 18 16.673 18 17.5C18 18.327 17.327 19 16.5 19Z" fill="black"/>
</svg>
