<svg width="38" height="38" viewBox="0 0 38 38" fill="none" xmlns="http://www.w3.org/2000/svg">
<rect width="38" height="38" rx="6.33333" fill="#FFC900"/>
<path d="M23.982 13.6115C23.3768 13.6121 22.7966 13.8258 22.3687 14.2059C21.9408 14.5859 21.7001 15.1012 21.6995 15.6386V20.6878C21.7059 21.0492 21.6314 21.4079 21.4801 21.7434C21.3288 22.0789 21.104 22.3842 20.8185 22.6417C20.533 22.8993 20.1927 23.1038 19.8174 23.2434C19.4421 23.383 19.0392 23.4549 18.6323 23.4549C18.2254 23.4549 17.8226 23.383 17.4472 23.2434C17.0719 23.1038 16.7316 22.8993 16.4462 22.6417C16.1607 22.3842 15.9358 22.0789 15.7846 21.7434C15.6333 21.4079 15.5587 21.0492 15.5651 20.6878V15.6386C15.5651 15.101 15.3246 14.5855 14.8966 14.2053C14.4685 13.8252 13.8879 13.6117 13.2826 13.6117C12.6772 13.6117 12.0966 13.8252 11.6685 14.2053C11.2405 14.5855 11 15.101 11 15.6386V21.2224C11 22.1125 11.1974 22.9938 11.581 23.8161C11.9645 24.6384 12.5267 25.3855 13.2355 26.015C13.9442 26.6443 14.7856 27.1435 15.7116 27.4841C16.6375 27.8247 17.63 28 18.6323 28C19.6346 28 20.6271 27.8247 21.5531 27.4841C22.4791 27.1435 23.3204 26.6443 24.0291 26.015C24.7379 25.3855 25.3001 24.6384 25.6836 23.8161C26.0672 22.9938 26.2646 22.1125 26.2646 21.2224V15.6386C26.264 15.1012 26.0233 14.5859 25.5954 14.2059C25.1675 13.8258 24.5872 13.6121 23.982 13.6115ZM25.266 21.222C25.266 22.7844 24.5671 24.2827 23.323 25.3874C22.079 26.4921 20.3917 27.1128 18.6323 27.1128C16.8729 27.1128 15.1857 26.4921 13.9416 25.3874C12.6975 24.2827 11.9986 22.7844 11.9986 21.222V15.6386C12.0016 15.3379 12.1381 15.0504 12.3786 14.8387C12.619 14.627 12.9439 14.5082 13.2826 14.5082C13.6212 14.5082 13.9461 14.627 14.1866 14.8387C14.427 15.0504 14.5636 15.3379 14.5665 15.6386V20.6878C14.5665 21.6454 14.9949 22.5637 15.7573 23.2409C16.5198 23.918 17.554 24.2983 18.6323 24.2983C19.7106 24.2983 20.7448 23.918 21.5073 23.2409C22.2697 22.5637 22.6981 21.6454 22.6981 20.6878V15.6386C22.6981 15.3362 22.8334 15.0462 23.0742 14.8324C23.315 14.6186 23.6415 14.4985 23.982 14.4985C24.3226 14.4985 24.6491 14.6186 24.89 14.8324C25.1307 15.0462 25.266 15.3362 25.266 15.6386V21.222Z" fill="url(#paint0_linear)"/>
<path d="M18.133 14.6449V20.4904C18.133 20.608 18.1856 20.7208 18.2793 20.804C18.3729 20.8871 18.4999 20.9338 18.6323 20.9338C18.7647 20.9338 18.8918 20.8871 18.9854 20.804C19.079 20.7208 19.1316 20.608 19.1316 20.4904V14.6449C19.7763 14.5346 20.3515 14.2148 20.745 13.7481C21.1385 13.2814 21.3219 12.7013 21.2595 12.1209C21.1971 11.5405 20.8934 11.0016 20.4076 10.6095C19.9218 10.2173 19.2889 10 18.6323 10C17.9758 10 17.3428 10.2173 16.857 10.6095C16.3712 11.0016 16.0675 11.5405 16.0051 12.1209C15.9427 12.7013 16.1262 13.2814 16.5196 13.7481C16.9131 14.2148 17.4883 14.5346 18.133 14.6449ZM18.6323 10.8877C18.9568 10.8877 19.274 10.9732 19.5438 11.1333C19.8136 11.2934 20.0239 11.5209 20.1481 11.7871C20.2722 12.0533 20.3047 12.3463 20.2414 12.6289C20.1781 12.9115 20.0218 13.1711 19.7924 13.3748C19.5629 13.5786 19.2706 13.7173 18.9523 13.7735C18.6341 13.8298 18.3042 13.8009 18.0044 13.6906C17.7046 13.5803 17.4484 13.3936 17.2681 13.154C17.0879 12.9144 16.9917 12.6327 16.9917 12.3446C16.9922 11.9583 17.1652 11.588 17.4728 11.3149C17.7804 11.0418 18.1974 10.8882 18.6323 10.8877Z" fill="url(#paint1_linear)"/>
<defs>
<linearGradient id="paint0_linear" x1="11" y1="20.8058" x2="26.2646" y2="20.8058" gradientUnits="userSpaceOnUse">
<stop stop-color="white"/>
<stop offset="1" stop-color="white"/>
</linearGradient>
<linearGradient id="paint1_linear" x1="15.9932" y1="15.4669" x2="21.2715" y2="15.4669" gradientUnits="userSpaceOnUse">
<stop stop-color="white"/>
<stop offset="1" stop-color="white"/>
</linearGradient>
</defs>
</svg>
