<svg width="35" height="35" viewBox="0 0 35 35" fill="none" xmlns="http://www.w3.org/2000/svg">
<path d="M19.5564 17.5L25.8272 11.2437C26.1018 10.9691 26.2561 10.5967 26.2561 10.2083C26.2561 9.81996 26.1018 9.44751 25.8272 9.1729C25.5526 8.89829 25.1802 8.74402 24.7918 8.74402C24.4035 8.74402 24.031 8.89829 23.7564 9.1729L17.5002 15.4437L11.2439 9.1729C10.9693 8.89829 10.5968 8.74402 10.2085 8.74402C9.82013 8.74402 9.44768 8.89829 9.17307 9.1729C8.89846 9.44751 8.74419 9.81996 8.74419 10.2083C8.74419 10.5967 8.89846 10.9691 9.17307 11.2437L15.4439 17.5L9.17307 23.7562C9.03638 23.8918 8.92789 24.0531 8.85386 24.2308C8.77982 24.4085 8.7417 24.5991 8.7417 24.7917C8.7417 24.9842 8.77982 25.1748 8.85386 25.3525C8.92789 25.5302 9.03638 25.6915 9.17307 25.8271C9.30864 25.9638 9.46994 26.0722 9.64765 26.1463C9.82536 26.2203 10.016 26.2584 10.2085 26.2584C10.401 26.2584 10.5916 26.2203 10.7693 26.1463C10.947 26.0722 11.1083 25.9638 11.2439 25.8271L17.5002 19.5562L23.7564 25.8271C23.892 25.9638 24.0533 26.0722 24.231 26.1463C24.4087 26.2203 24.5993 26.2584 24.7918 26.2584C24.9843 26.2584 25.175 26.2203 25.3527 26.1463C25.5304 26.0722 25.6917 25.9638 25.8272 25.8271C25.9639 25.6915 26.0724 25.5302 26.1465 25.3525C26.2205 25.1748 26.2586 24.9842 26.2586 24.7917C26.2586 24.5991 26.2205 24.4085 26.1465 24.2308C26.0724 24.0531 25.9639 23.8918 25.8272 23.7562L19.5564 17.5Z" fill="black"/>
</svg>
