<svg width="34" height="34" viewBox="0 0 34 34" fill="none" xmlns="http://www.w3.org/2000/svg">
<path d="M8.34177 26.4153H25.0251V12.7308L16.6834 5.14819L8.34177 12.7308V26.4153ZM26.4154 29.1958H6.95149C6.58277 29.1958 6.22914 29.0494 5.96842 28.7886C5.70769 28.5279 5.56121 28.1743 5.56121 27.8055V15.293H1.39038L15.7478 2.24112C16.0037 2.00822 16.3374 1.87915 16.6834 1.87915C17.0295 1.87915 17.3631 2.00822 17.6191 2.24112L31.9765 15.293H27.8057V27.8055C27.8057 28.1743 27.6592 28.5279 27.3985 28.7886C27.1377 29.0494 26.7841 29.1958 26.4154 29.1958ZM10.4272 18.0736H13.2077C13.2077 18.9954 13.5739 19.8795 14.2257 20.5313C14.8776 21.1831 15.7616 21.5493 16.6834 21.5493C17.6052 21.5493 18.4893 21.1831 19.1411 20.5313C19.7929 19.8795 20.1591 18.9954 20.1591 18.0736H22.9397C22.9397 19.7329 22.2805 21.3242 21.1073 22.4974C19.934 23.6707 18.3427 24.3299 16.6834 24.3299C15.0242 24.3299 13.4329 23.6707 12.2596 22.4974C11.0863 21.3242 10.4272 19.7329 10.4272 18.0736V18.0736Z" fill="#444444"/>
</svg>
