<svg width="31" height="29" viewBox="0 0 31 29" fill="none" xmlns="http://www.w3.org/2000/svg">
<path d="M7.34177 25.4153H24.0251V11.7308L15.6834 4.14819L7.34177 11.7308V25.4153ZM25.4154 28.1958H5.95149C5.58277 28.1958 5.22914 28.0494 4.96842 27.7886C4.70769 27.5279 4.56121 27.1743 4.56121 26.8055V14.293H0.390381L14.7478 1.24112C15.0037 1.00822 15.3374 0.87915 15.6834 0.87915C16.0295 0.87915 16.3631 1.00822 16.6191 1.24112L30.9765 14.293H26.8057V26.8055C26.8057 27.1743 26.6592 27.5279 26.3985 27.7886C26.1377 28.0494 25.7841 28.1958 25.4154 28.1958ZM9.42719 17.0736H12.2077C12.2077 17.9954 12.5739 18.8795 13.2257 19.5313C13.8776 20.1831 14.7616 20.5493 15.6834 20.5493C16.6052 20.5493 17.4893 20.1831 18.1411 19.5313C18.7929 18.8795 19.1591 17.9954 19.1591 17.0736H21.9397C21.9397 18.7329 21.2805 20.3242 20.1073 21.4974C18.934 22.6707 17.3427 23.3299 15.6834 23.3299C14.0242 23.3299 12.4329 22.6707 11.2596 21.4974C10.0863 20.3242 9.42719 18.7329 9.42719 17.0736V17.0736Z" fill="#FFC700"/>
</svg>
