<svg width="312" height="234" viewBox="0 0 312 234" fill="none" xmlns="http://www.w3.org/2000/svg">
<path d="M211.622 26.6022C211.622 40.9204 211.622 55.2387 211.622 69.5375C211.622 73.6229 211.622 77.6888 211.622 81.7742C211.622 82.1438 212.206 82.1438 212.206 81.7742C212.206 67.4559 212.206 53.1377 212.206 38.8388C212.206 34.7535 212.206 30.6875 212.206 26.6022C212.206 26.2325 211.622 26.2325 211.622 26.6022Z" fill="#E8E8E8"/>
<path d="M211.622 26.3884C227.01 26.6413 242.399 27.0693 257.787 27.6724C258.157 27.6919 258.157 27.1082 257.787 27.0888C242.399 26.4857 227.01 26.0577 211.622 25.8048C211.253 25.8048 211.253 26.3884 211.622 26.3884Z" fill="#E8E8E8"/>
<path d="M212.109 82.1245C226.524 83.175 240.843 85.1983 255.141 87.2409C255.511 87.2993 255.667 86.7351 255.297 86.6768C240.94 84.6341 226.563 82.6109 212.109 81.5409C211.739 81.5214 211.739 82.1051 212.109 82.1245Z" fill="#E8E8E8"/>
<path d="M257.495 27.7891C257.495 43.294 257.495 58.7796 257.495 74.2845C257.495 78.6812 257.495 83.0583 257.495 87.455C257.495 87.8246 258.078 87.8246 258.078 87.455C258.078 71.95 258.078 56.4645 258.078 40.9595C258.078 36.5629 258.078 32.1857 258.078 27.7891C258.078 27.4194 257.495 27.4194 257.495 27.7891Z" fill="#E8E8E8"/>
<path d="M254.791 87.202C255.744 87.3382 256.697 87.5133 257.631 87.6884C258.001 87.7662 258.156 87.202 257.787 87.1242C256.833 86.9297 255.9 86.774 254.946 86.6379C254.577 86.5989 254.421 87.1437 254.791 87.202Z" fill="#E8E8E8"/>
<path d="M212.186 52.1067C220.007 52.204 227.789 52.9822 235.531 54.0522C239.325 54.5774 243.118 55.161 246.893 55.7447C250.511 56.3088 254.188 57.1259 257.865 56.8146C258.234 56.7757 258.234 56.1921 257.865 56.231C254.052 56.5423 250.219 55.6669 246.484 55.0832C242.632 54.4801 238.78 53.8965 234.928 53.3713C227.38 52.3596 219.812 51.6009 212.186 51.5037C211.797 51.5037 211.797 52.0873 212.186 52.1067Z" fill="#E8E8E8"/>
<path d="M215.202 52.3208C215.533 61.0557 215.883 69.7906 216.213 78.5256C216.233 78.8952 216.817 78.8952 216.797 78.5256C216.466 69.7906 216.116 61.0557 215.786 52.3208C215.766 51.9512 215.182 51.9512 215.202 52.3208Z" fill="#E8E8E8"/>
<path d="M216.914 78.8562C230.181 80.4709 243.469 81.8716 256.756 83.2529C257.125 83.2918 257.125 82.7082 256.756 82.6692C243.469 81.2685 230.181 79.8679 216.914 78.2726C216.544 78.2337 216.544 78.8173 216.914 78.8562Z" fill="#E8E8E8"/>
<path d="M212.478 81.6189C213.937 80.7824 215.377 79.9458 216.836 79.0898C217.167 78.8953 216.875 78.3895 216.544 78.584C215.085 79.4206 213.645 80.2571 212.186 81.1131C211.856 81.3076 212.147 81.8134 212.478 81.6189Z" fill="#E8E8E8"/>
<path d="M216.388 48.9162C228.216 49.8305 240.064 50.7254 251.892 51.6398C252.262 51.6592 252.262 51.0756 251.892 51.0561C240.064 50.1418 228.216 49.2469 216.388 48.3325C216.019 48.2936 216.019 48.8773 216.388 48.9162Z" fill="#E8E8E8"/>
<path d="M215.027 44.7531C227.905 44.8114 240.784 45.1811 253.663 45.8619C254.032 45.8814 254.032 45.2978 253.663 45.2783C240.803 44.5974 227.925 44.2083 215.027 44.1694C214.638 44.1694 214.638 44.7531 215.027 44.7531Z" fill="#E8E8E8"/>
<path d="M217.322 38.7416C226.193 38.761 235.064 38.7805 243.935 38.7999C244.305 38.7999 244.305 38.2163 243.935 38.2163C235.064 38.1969 226.193 38.1774 217.322 38.158C216.933 38.158 216.933 38.7416 217.322 38.7416Z" fill="#E8E8E8"/>
<path d="M215.299 32.9443C227.38 32.7887 239.442 33.1194 251.503 33.917C251.873 33.9365 251.873 33.3528 251.503 33.3334C239.461 32.5358 227.38 32.205 215.299 32.3607C214.91 32.3607 214.91 32.9443 215.299 32.9443Z" fill="#E8E8E8"/>
<path d="M245.258 80.938C245.006 80.3738 245.083 80.0626 245.492 79.9653C245.648 79.9069 245.803 79.8486 245.959 79.8291C246.153 79.7902 246.348 79.7513 246.523 79.7124C246.873 79.6151 247.204 79.4595 247.457 79.1871C247.924 78.7008 248.04 78.0782 247.924 77.4362C247.904 77.3195 247.768 77.2028 247.651 77.2222C246.037 77.3584 246.173 74.8294 247.826 75.3352C248.118 75.4325 248.293 75.0434 248.118 74.8488C246.834 73.4676 244.364 70.102 246.056 68.2539C246.504 67.7675 247.301 67.4563 247.904 67.8453C248.274 68.0788 248.507 68.5262 248.702 68.9153C248.974 69.4017 249.208 69.9464 249.675 70.2577C250.725 70.958 251.795 69.9853 251.97 68.9348C252.126 67.9621 251.659 66.9894 251.659 66.0167C251.659 65.3358 251.795 64.577 252.301 64.0712C252.826 63.546 253.721 63.3709 254.344 63.8767C254.558 64.0518 254.927 63.8961 254.83 63.5849C254.635 62.9429 254.558 62.262 254.927 61.6589C255.355 60.9975 256.386 60.7446 256.814 61.5616C256.989 61.8924 257.495 61.6006 257.32 61.2698C256.873 60.4333 255.783 60.2388 254.986 60.7251C253.974 61.3476 253.954 62.7094 254.266 63.7211C254.421 63.6238 254.596 63.5265 254.752 63.4292C253.215 62.1453 251.367 63.6043 251.114 65.2968C251.036 65.8027 251.075 66.3085 251.153 66.8143C251.27 67.6119 251.698 68.6819 251.172 69.4211C250.083 70.958 249.208 68.4484 248.702 67.8259C247.593 66.4446 245.589 67.1644 245.083 68.7402C244.344 71.0164 246.212 73.6816 247.671 75.2379C247.768 75.0823 247.865 74.9072 247.963 74.7516C247.048 74.4598 245.939 74.985 245.784 75.9966C245.648 77.0472 246.64 77.8448 247.612 77.767C247.515 77.6892 247.418 77.6308 247.34 77.553C247.729 79.6346 244.792 78.7202 244.286 80.2571C244.033 81.0353 244.792 81.7356 245.531 81.4049C245.9 81.2687 245.609 80.7629 245.258 80.938Z" fill="#E8E8E8"/>
<path d="M244.208 95.1782C244.208 101.151 244.208 107.123 244.208 113.076C244.208 113.446 244.791 113.446 244.791 113.076C244.791 107.104 244.791 101.131 244.791 95.1782C244.791 94.8086 244.208 94.8086 244.208 95.1782Z" fill="#E8E8E8"/>
<path d="M244.558 95.1589C251.892 96.7931 259.207 98.4272 266.541 100.042C266.911 100.12 267.067 99.5556 266.697 99.4777C259.363 97.8436 252.048 96.2094 244.714 94.5948C244.344 94.5169 244.189 95.0811 244.558 95.1589Z" fill="#E8E8E8"/>
<path d="M244.811 113.582C251.211 115.664 257.631 117.687 264.071 119.652C264.44 119.769 264.576 119.204 264.226 119.088C257.787 117.123 251.367 115.1 244.967 113.018C244.616 112.901 244.461 113.465 244.811 113.582Z" fill="#E8E8E8"/>
<path d="M266.444 99.7889C266.444 106.442 266.444 113.096 266.444 119.729C266.444 120.099 267.028 120.099 267.028 119.729C267.028 113.076 267.028 106.423 267.028 99.7889C267.028 99.3998 266.444 99.3998 266.444 99.7889Z" fill="#E8E8E8"/>
<path d="M263.721 119.671C264.752 119.807 265.783 119.963 266.794 120.099C267.164 120.157 267.32 119.593 266.95 119.535C265.919 119.398 264.888 119.243 263.876 119.107C263.507 119.068 263.351 119.632 263.721 119.671Z" fill="#E8E8E8"/>
<path d="M246.231 97.4738C245.94 102.123 245.881 106.773 246.037 111.422C246.056 111.792 246.64 111.792 246.62 111.422C246.465 106.773 246.523 102.123 246.815 97.4738C246.834 97.1041 246.251 97.1041 246.231 97.4738Z" fill="#E8E8E8"/>
<path d="M246.27 112.24C252.32 113.854 258.604 115.138 264.343 117.667C264.693 117.823 264.985 117.317 264.635 117.161C258.838 114.613 252.515 113.29 246.406 111.675C246.076 111.578 245.92 112.142 246.27 112.24Z" fill="#E8E8E8"/>
<path d="M246.348 97.474C252.632 98.544 258.896 99.7307 265.141 100.995C265.51 101.073 265.666 100.509 265.296 100.431C259.051 99.1471 252.787 97.9798 246.503 96.9099C246.134 96.8515 245.978 97.4157 246.348 97.474Z" fill="#E8E8E8"/>
<path d="M264.849 100.548C264.401 106.073 264.207 111.617 264.226 117.161C264.226 117.531 264.81 117.531 264.81 117.161C264.771 111.617 264.985 106.073 265.432 100.548C265.452 100.178 264.868 100.178 264.849 100.548Z" fill="#E8E8E8"/>
<path d="M246.678 104.575C248.915 105.664 251.25 106.559 253.643 107.259C254.012 107.357 254.168 106.792 253.798 106.695C251.444 106.014 249.168 105.158 246.97 104.069C246.639 103.913 246.347 104.419 246.678 104.575Z" fill="#E8E8E8"/>
<path d="M255.394 99.0884C254.46 101.715 253.701 104.399 253.098 107.142C253.021 107.512 253.585 107.668 253.663 107.298C254.266 104.575 255.024 101.89 255.958 99.2441C256.075 98.8745 255.511 98.7383 255.394 99.0884Z" fill="#E8E8E8"/>
<path d="M254.772 102.435C256.522 102.104 257.904 104.01 258.196 105.508C258.507 107.104 257.787 108.563 256.62 109.652C255.375 110.8 253.643 111.15 252.126 110.275C250.57 109.38 250.083 107.337 250.764 105.761C250.92 105.411 250.414 105.119 250.258 105.47C249.519 107.182 249.869 109.283 251.367 110.469C252.982 111.753 255.239 111.598 256.775 110.294C258.39 108.932 259.285 106.929 258.624 104.866C258.098 103.193 256.503 101.54 254.616 101.89C254.246 101.948 254.402 102.513 254.772 102.435Z" fill="#E8E8E8"/>
<path d="M258.157 112.298C258.896 112.765 259.557 113.29 260.141 113.913C260.394 114.185 260.822 113.776 260.55 113.504C259.927 112.843 259.207 112.279 258.449 111.792C258.137 111.598 257.845 112.103 258.157 112.298Z" fill="#E8E8E8"/>
<path d="M260.024 109.36C260.666 109.516 261.289 109.652 261.931 109.808C262.3 109.886 262.456 109.322 262.086 109.244C261.444 109.088 260.822 108.952 260.18 108.796C259.81 108.718 259.654 109.263 260.024 109.36Z" fill="#E8E8E8"/>
<path d="M259.46 103.096C260.258 103.057 260.958 102.785 261.581 102.298C261.872 102.065 261.464 101.656 261.172 101.89C260.686 102.279 260.083 102.493 259.46 102.532C259.071 102.532 259.071 103.116 259.46 103.096Z" fill="#E8E8E8"/>
<path d="M255.744 96.7542C255.724 96.3262 255.666 95.7037 256.114 95.4702C256.542 95.2368 256.658 95.6647 256.639 95.976C256.619 96.5402 256.444 97.0849 256.639 97.6296C256.775 97.9798 257.339 97.8242 257.203 97.474C256.911 96.7153 257.65 95.5091 256.794 94.9644C256.386 94.692 255.861 94.8477 255.53 95.1784C255.121 95.6064 255.121 96.2095 255.141 96.7542C255.16 97.1238 255.744 97.1238 255.744 96.7542Z" fill="#E8E8E8"/>
<path d="M123.417 5.94196C123.417 16.7001 123.417 27.4388 123.417 38.197C123.417 38.5666 124.001 38.5666 124.001 38.197C124.001 27.4388 124.001 16.7001 124.001 5.94196C124.001 5.55288 123.417 5.55288 123.417 5.94196Z" fill="#E8E8E8"/>
<path d="M123.3 38.3722C116.239 41.9517 110.519 47.8463 107.173 55.0249C107.017 55.3556 107.523 55.6669 107.679 55.3167C110.986 48.2354 116.628 42.4186 123.592 38.878C123.923 38.7223 123.631 38.2165 123.3 38.3722Z" fill="#E8E8E8"/>
<path d="M123.67 38.7223C130.537 41.5821 136.082 47.2432 138.805 54.1495C138.942 54.4996 139.506 54.344 139.37 53.9938C136.549 46.8541 130.907 41.0957 123.826 38.1581C123.475 38.0219 123.32 38.5861 123.67 38.7223Z" fill="#E8E8E8"/>
<path d="M108.69 55.6669C118.067 51.4064 128.572 53.0016 138.358 54.6163C138.727 54.6747 138.883 54.1105 138.513 54.0522C128.533 52.418 117.931 50.8422 108.379 55.161C108.068 55.3167 108.359 55.8225 108.69 55.6669Z" fill="#E8E8E8"/>
<path d="M120.129 53.1768C119.565 54.4024 119.332 55.8809 119.935 57.1455C120.596 58.5462 122.23 59.1687 123.709 59.2076C125.09 59.2465 126.549 58.6629 127.25 57.3984C127.892 56.2117 127.814 54.7721 126.88 53.7604C126.627 53.4881 126.219 53.8966 126.471 54.169C127.269 55.025 127.25 56.3478 126.608 57.3011C125.927 58.3322 124.604 58.6823 123.417 58.5851C122.192 58.4878 120.908 57.9236 120.421 56.7369C119.974 55.667 120.168 54.4608 120.635 53.4297C120.791 53.1185 120.285 52.8266 120.129 53.1768Z" fill="#E8E8E8"/>
<path d="M94.9168 71.6195C98.6909 69.2072 102.484 66.7948 106.259 64.402C106.57 64.2074 106.278 63.7016 105.967 63.8962C102.193 66.3085 98.3991 68.7208 94.625 71.1137C94.2943 71.3277 94.5861 71.8335 94.9168 71.6195Z" fill="#E8E8E8"/>
<path d="M96.9788 83.1554C100.189 80.2178 103.243 77.1246 106.142 73.8758C106.395 73.6034 105.986 73.1754 105.733 73.4672C102.835 76.7161 99.7802 79.8093 96.5703 82.7469C96.2979 82.9998 96.7065 83.4083 96.9788 83.1554Z" fill="#E8E8E8"/>
<path d="M112.289 81.2882C109.371 88.7975 106.647 96.4041 104.138 104.069C104.021 104.419 104.585 104.575 104.702 104.225C107.212 96.5597 109.935 88.9726 112.853 81.4438C112.99 81.0936 112.425 80.9575 112.289 81.2882Z" fill="#E8E8E8"/>
<path d="M124.409 75.9769C126.685 81.9883 128.981 87.9996 131.257 93.9915C131.393 94.3417 131.957 94.186 131.821 93.8358C129.545 87.8245 127.25 81.8132 124.973 75.8213C124.837 75.4711 124.273 75.6267 124.409 75.9769Z" fill="#E8E8E8"/>
<path d="M135.129 67.6311C138.533 70.4908 141.724 73.6035 144.681 76.9302C144.934 77.2025 145.342 76.794 145.089 76.5216C142.132 73.195 138.942 70.1017 135.537 67.2225C135.265 66.9696 134.856 67.3782 135.129 67.6311Z" fill="#E8E8E8"/>
<path d="M140.362 59.6549C143.007 60.9583 145.673 62.2423 148.318 63.5457C148.649 63.7013 148.96 63.215 148.61 63.0399C145.964 61.7365 143.299 60.4525 140.653 59.1491C140.323 58.9934 140.031 59.4798 140.362 59.6549Z" fill="#E8E8E8"/>
<path d="M123.806 151.187C128.105 147.491 133.65 146.012 139.038 144.65C141.781 143.95 144.505 143.25 147.19 142.316C150.283 141.246 153.298 139.943 156.294 138.639C156.644 138.483 156.333 137.997 156.002 138.133C152.812 139.515 149.622 140.896 146.334 142.005C143.591 142.919 140.789 143.6 137.988 144.32C132.813 145.662 127.541 147.218 123.417 150.778C123.105 151.012 123.514 151.42 123.806 151.187Z" fill="#E8E8E8"/>
<path d="M161.022 51.2509C173.706 52.0291 186.312 53.7021 198.782 56.2312C199.152 56.309 199.308 55.7448 198.938 55.667C186.429 53.1185 173.764 51.4454 161.041 50.6478C160.633 50.6478 160.633 51.2314 161.022 51.2509Z" fill="#E8E8E8"/>
<path d="M161.041 50.8031C161.177 49.986 161.216 49.1495 161.158 48.3324C161.139 47.9628 160.555 47.9628 160.574 48.3324C160.633 49.1106 160.613 49.8887 160.477 50.6669C160.419 51.0171 160.983 51.1727 161.041 50.8031Z" fill="#E8E8E8"/>
<path d="M160.983 48.8969C173.667 50.2003 186.41 51.3481 198.899 54.0328C199.269 54.1106 199.425 53.5464 199.055 53.4686C186.507 50.7839 173.726 49.6167 160.983 48.3133C160.614 48.2744 160.614 48.858 160.983 48.8969Z" fill="#E8E8E8"/>
<path d="M198.646 53.6436C198.569 54.3828 198.627 55.1221 198.763 55.8613C198.841 56.231 199.405 56.0753 199.327 55.7057C199.191 55.0248 199.172 54.3439 199.23 53.6436C199.269 53.2739 198.685 53.2739 198.646 53.6436Z" fill="#E8E8E8"/>
<path d="M161.956 42.2047C161.703 44.4614 161.956 46.6792 162.734 48.8191C162.87 49.1693 163.434 49.0137 163.298 48.6635C162.539 46.5819 162.286 44.4225 162.539 42.2047C162.578 41.8156 161.995 41.8351 161.956 42.2047Z" fill="#E8E8E8"/>
<path d="M161.858 42.2629C164.29 42.9243 166.78 43.2161 169.29 43.0994C169.659 43.08 169.659 42.4963 169.29 42.5158C166.819 42.6131 164.387 42.3407 162.014 41.6987C161.644 41.6015 161.489 42.1656 161.858 42.2629Z" fill="#E8E8E8"/>
<path d="M168.804 43.08C169.115 45.0643 168.862 47.0486 168.025 48.8773C167.87 49.2081 168.376 49.5193 168.531 49.1692C169.426 47.1848 169.699 45.0838 169.368 42.9244C169.309 42.5547 168.745 42.7104 168.804 43.08Z" fill="#E8E8E8"/>
<path d="M164.095 42.0295C162.578 40.0257 162.014 37.5161 162.559 35.0649C162.403 35.1038 162.228 35.1427 162.072 35.2011C164.076 37.1465 165.34 39.695 165.671 42.4769C165.71 42.8466 166.294 42.8466 166.255 42.4769C165.924 39.5394 164.621 36.8547 162.481 34.7925C162.325 34.6369 162.033 34.6953 161.994 34.9287C161.43 37.5356 161.994 40.2203 163.59 42.3408C163.804 42.6131 164.309 42.3213 164.095 42.0295Z" fill="#E8E8E8"/>
<path d="M165.613 39.7337C165.885 38.3525 166.313 37.0296 166.955 35.7845C167.247 35.2009 167.597 34.6367 167.986 34.092C168.259 33.7224 168.259 33.489 168.434 33.9169C168.55 34.2088 168.589 34.7535 168.628 35.0453C168.92 37.73 168.122 40.4535 166.449 42.574C166.216 42.8659 166.624 43.2744 166.858 42.9826C168.862 40.4341 169.873 36.8156 168.959 33.6251C168.531 32.1272 167.519 33.7224 167.111 34.3449C166.099 35.9402 165.418 37.73 165.049 39.5781C164.99 39.9477 165.554 40.1034 165.613 39.7337Z" fill="#E8E8E8"/>
<path d="M174.329 50.1225C174.407 49.8501 174.407 49.6556 174.387 49.3637C174.368 49.1303 174.154 48.6439 174.232 48.4494C174.523 47.6518 176.352 48.2354 176.897 48.2938C178.823 48.5272 180.729 48.7801 182.636 49.0525C186.332 49.5777 190.009 50.1808 193.666 50.8228C193.588 50.7255 193.53 50.6283 193.452 50.5505C193.511 50.959 193.549 51.3675 193.608 51.7761C193.647 52.1457 194.23 52.1457 194.191 51.7761C194.133 51.3675 194.094 50.959 194.036 50.5505C194.016 50.4337 193.958 50.2975 193.822 50.2781C189.522 49.4999 185.223 48.819 180.904 48.2354C178.92 47.963 176.858 47.5351 174.854 47.4767C174.407 47.4572 173.959 47.5351 173.726 47.9825C173.414 48.605 173.92 49.3054 173.765 49.9474C173.667 50.3365 174.232 50.4921 174.329 50.1225Z" fill="#E8E8E8"/>
<path d="M180.32 47.9436C179.581 46.8153 181.137 46.2122 181.993 46.2122C182.81 46.2122 183.627 46.4067 184.444 46.5234C185.923 46.7374 187.421 46.9514 188.899 47.1849C190.359 47.3989 191.837 47.6518 193.296 47.9241C193.958 48.0603 194.619 48.1965 195.3 48.3521C195.884 48.4883 198.257 48.7801 197.751 49.8696C197.595 50.2003 198.101 50.5116 198.257 50.1614C199.074 48.391 196.409 48.002 195.28 47.7491C192.926 47.2238 190.553 46.8347 188.16 46.4845C186.974 46.3095 185.806 46.1344 184.62 45.9787C183.569 45.8231 182.421 45.5118 181.351 45.6869C180.165 45.862 179.095 47.1071 179.853 48.2549C180.028 48.5467 180.534 48.2549 180.32 47.9436Z" fill="#E8E8E8"/>
<path d="M193.685 50.8033C195.047 51.1535 196.429 51.2313 197.829 50.9979C198.199 50.9395 198.043 50.3753 197.674 50.4337C196.39 50.6282 195.106 50.5699 193.841 50.2392C193.471 50.1613 193.316 50.7255 193.685 50.8033Z" fill="#E8E8E8"/>
<path d="M107.464 55.6866C111.491 56.1535 115.538 56.4064 119.604 56.4453C119.974 56.4453 119.974 55.8616 119.604 55.8616C115.538 55.8227 111.491 55.5504 107.464 55.1029C107.095 55.064 107.095 55.6477 107.464 55.6866Z" fill="#E8E8E8"/>
<path d="M127.716 56.1921C131.51 56.1921 135.226 55.7252 138.941 54.9859C139.311 54.9081 139.155 54.344 138.786 54.4218C135.128 55.161 131.471 55.6085 127.716 55.6085C127.347 55.6085 127.347 56.1921 127.716 56.1921Z" fill="#E8E8E8"/>
<path d="M113.67 68.9345C111.725 72.3974 109.78 75.8602 107.834 79.3231C107.659 79.6538 108.146 79.9456 108.34 79.6149C110.285 76.152 112.231 72.6892 114.176 69.2264C114.351 68.8956 113.846 68.6038 113.67 68.9345Z" fill="#E8E8E8"/>
<path d="M126.802 65.355C128.067 67.3588 129.214 69.4015 130.265 71.522C130.44 71.8527 130.946 71.5609 130.771 71.2302C129.72 69.1291 128.553 67.067 127.308 65.0632C127.113 64.7325 126.608 65.0243 126.802 65.355Z" fill="#E8E8E8"/>
<path d="M135.459 61.192C136.937 62.048 138.397 62.8845 139.875 63.7405C140.206 63.9351 140.498 63.4292 140.167 63.2347C138.688 62.3787 137.229 61.5422 135.751 60.6862C135.42 60.4917 135.128 60.9975 135.459 61.192Z" fill="#E8E8E8"/>
<path d="M174.251 184.531C188.666 180.621 202.868 175.991 216.817 170.66C223.703 168.034 230.512 165.232 237.243 162.256C240.667 160.758 244.052 159.202 247.437 157.606C250.764 156.05 254.032 154.358 257.398 152.918C261.25 151.264 265.374 149.961 269.615 150.233C273.876 150.506 277.728 152.509 281.443 154.455C281.774 154.63 282.066 154.124 281.735 153.949C278.622 152.315 275.432 150.642 271.95 149.941C268.565 149.28 265.121 149.689 261.833 150.661C258.332 151.692 255.044 153.307 251.776 154.883C248.371 156.536 244.928 158.151 241.484 159.707C227.516 166.05 213.237 171.652 198.705 176.516C190.573 179.239 182.383 181.71 174.115 183.947C173.726 184.064 173.881 184.628 174.251 184.531Z" fill="#191919"/>
<path d="M271.21 155.622C273.953 156.167 276.541 155.117 279.245 154.825C282.338 154.494 285.354 155.389 288.233 156.42C293.797 158.404 299.127 160.972 304.146 164.066C304.477 164.26 304.769 163.754 304.438 163.56C299.477 160.505 294.205 157.957 288.719 155.973C286.034 155 283.214 154.105 280.315 154.163C277.3 154.241 274.381 155.642 271.366 155.058C270.996 154.98 270.841 155.545 271.21 155.622Z" fill="#191919"/>
<path d="M155.575 199.161C153.454 202.546 152.696 206.495 152.248 210.405C151.723 214.977 151.314 219.568 150.867 224.14C150.828 224.509 151.412 224.509 151.45 224.14C151.878 219.782 152.287 215.424 152.754 211.067C153.201 207.04 153.882 202.954 156.081 199.452C156.275 199.141 155.789 198.849 155.575 199.161Z" fill="#191919"/>
<path d="M169.349 207.604C165.886 213.382 165.419 220.23 165.438 226.805C165.438 227.175 166.022 227.175 166.022 226.805C166.002 220.327 166.43 213.576 169.854 207.896C170.049 207.565 169.543 207.273 169.349 207.604Z" fill="#191919"/>
<path d="M139.876 205.503C143.261 201.787 147.171 198.13 151.47 195.503C155.945 192.78 161.12 192.293 166.217 191.924C166.586 191.904 166.586 191.321 166.217 191.34C161.139 191.729 155.945 192.196 151.47 194.822C149.291 196.106 147.346 197.721 145.439 199.336C143.338 201.126 141.335 203.032 139.467 205.075C139.214 205.367 139.623 205.775 139.876 205.503Z" fill="#191919"/>
<path d="M228.431 144.261C239.208 146.226 249.927 148.502 260.569 151.089C260.938 151.187 261.094 150.623 260.725 150.525C250.083 147.938 239.364 145.662 228.586 143.697C228.217 143.638 228.061 144.203 228.431 144.261Z" fill="#191919"/>
<path d="M177.713 103.991C178.025 105.294 178.453 107.434 178.453 110.1C178.453 117.648 175.068 124.554 174.036 126.636C173.375 127.958 172.052 130.487 171.196 134.223C170.904 135.448 170.749 136.479 170.671 137.18C171.449 137.258 172.636 137.394 174.036 137.608C177.188 138.075 178.511 138.483 180.359 138.775C181.954 139.008 184.23 139.184 187.11 138.872C187.032 139.592 186.896 140.662 186.682 141.927C186.176 145.078 185.923 146.634 185.32 147.821C184.386 149.65 183.355 150.175 183.627 150.973C183.822 151.556 184.561 151.829 186.37 152.237C189.347 152.918 190.942 152.996 192.479 153.288C194.191 153.618 194.249 153.891 197.965 155.292C201.175 156.498 203.023 157.198 205.338 157.723C206.077 157.898 209.949 158.754 215.026 158.56C217.867 158.463 218.898 158.112 221.563 158.346C223.8 158.54 225.609 159.027 226.835 159.396C227.01 158.307 227.263 156.673 227.458 154.65C227.886 150.331 227.555 149.611 228.197 147.49C228.683 145.837 228.936 146.109 230.823 142.121C232.049 139.514 232.671 138.211 233.138 136.635C233.411 135.682 234.208 132.841 234.091 129.048C233.975 125.157 233.08 125.896 232.73 121.675C232.691 121.13 232.613 119.943 231.952 119.69C231.465 119.496 230.882 119.904 230.201 120.352C228.333 121.577 226.777 122.375 226.427 122.55C225.454 123.017 223.878 123.367 221.33 122.609C221.602 121.733 221.952 120.527 222.322 119.048C222.964 116.422 223.236 114.555 223.528 112.473C223.528 112.473 224.189 107.843 223.314 105.139C223.139 104.613 222.886 104.205 222.497 104.049C222.108 103.894 221.738 104.049 221.349 104.166C220.785 104.341 219.987 104.497 218.878 104.497C218.723 104.224 218.47 103.816 218.12 103.407C217.672 102.882 216.777 102.007 215.046 101.326C212.906 100.47 210.513 100.334 208.198 100.334C204.268 100.334 203.976 100.762 200.163 100.781C198.16 100.781 196.467 100.8 194.191 100.45C190.222 99.8666 189.931 99.0107 187.732 99.2441C186.195 99.3997 184.775 100.139 181.935 101.598C180.145 102.512 178.725 103.368 177.713 103.991Z" fill="white"/>
<path d="M198.977 117.978C203.588 117.317 207.77 119.943 211.972 121.363C216.272 122.803 220.844 123.328 225.376 122.959C225.746 122.92 225.746 122.336 225.376 122.375C220.532 122.764 215.669 122.122 211.117 120.449C207.128 118.971 203.199 116.792 198.821 117.434C198.452 117.473 198.607 118.017 198.977 117.978Z" fill="#191919"/>
<path d="M200.572 118.582C198.996 117.92 197.362 115.41 195.475 116.733C194.619 117.317 194.269 118.406 193.977 119.34C193.51 120.819 193.16 122.336 192.771 123.854C191.993 127.005 190.787 129.884 189.405 132.822C188.141 135.468 187.09 138.094 186.546 140.993C186.04 143.697 185.787 146.557 184.386 148.988C183.997 149.689 182.869 150.72 183.725 151.498C184.542 152.257 186.157 152.665 187.188 152.938C188.549 153.307 189.931 153.385 191.351 153.443C193.082 153.502 194.561 153.93 196.117 154.611C198.938 155.817 201.739 157.081 204.696 157.918C208.198 158.91 211.544 158.929 215.163 158.696C219.034 158.443 222.828 158.735 226.582 159.727C226.738 159.766 226.874 159.669 226.932 159.533C228.353 155.934 227.302 152.004 228.314 148.327C229.325 144.65 231.932 141.674 233.08 138.036C234.208 134.534 234.403 130.76 233.975 127.122C233.78 125.371 233.43 123.64 232.963 121.947C232.73 121.072 232.516 118.951 231.135 119.457C230.298 119.768 229.481 120.43 228.742 120.935C227.925 121.48 227.108 122.044 226.252 122.55C224.442 123.659 222.516 124.534 220.357 124.515C219.987 124.515 219.987 125.099 220.357 125.099C223.489 125.118 226.115 123.367 228.625 121.694C229.267 121.266 229.909 120.819 230.59 120.43C230.668 120.371 230.979 120.138 231.115 120.118C232.068 119.963 231.757 120.293 231.971 120.663C232.205 121.052 232.282 121.675 232.399 122.103C232.885 123.854 233.236 125.643 233.43 127.472C233.8 131.013 233.586 134.651 232.457 138.055C231.349 141.421 229.034 144.203 227.925 147.549C226.641 151.401 227.866 155.603 226.349 159.396C226.466 159.338 226.582 159.26 226.699 159.202C223.898 158.463 221.038 158.073 218.139 158.054C215.124 158.035 212.108 158.56 209.093 158.249C206.155 157.937 203.315 157.023 200.572 155.934C198.062 154.941 195.495 153.385 192.79 153.015C191.409 152.821 189.989 152.938 188.608 152.704C187.343 152.49 185.553 152.159 184.542 151.381C184.094 151.031 184.017 150.778 184.25 150.253C184.367 149.981 184.62 149.728 184.756 149.475C185.028 149.008 185.262 148.541 185.456 148.035C185.923 146.887 186.215 145.681 186.468 144.456C186.974 141.907 187.285 139.359 188.199 136.907C189.172 134.3 190.553 131.849 191.623 129.281C192.868 126.305 193.393 123.134 194.327 120.041C194.736 118.698 195.436 116.305 197.323 117.161C198.393 117.648 199.132 118.659 200.222 119.126C200.63 119.223 200.922 118.718 200.572 118.582Z" fill="#191919"/>
<path d="M208.821 124.846C211.467 125.78 214.21 126.033 216.992 125.624C217.361 125.566 217.206 125.002 216.836 125.06C214.171 125.449 211.525 125.177 208.977 124.282C208.607 124.146 208.471 124.71 208.821 124.846Z" fill="#191919"/>
<path d="M221.933 123.036C223.898 123.153 225.824 122.92 227.691 122.317C228.042 122.2 227.886 121.636 227.536 121.753C225.707 122.336 223.859 122.57 221.933 122.433C221.544 122.433 221.563 123.017 221.933 123.036Z" fill="#191919"/>
<path d="M178.336 104.127C179.97 103.135 181.585 102.143 183.219 101.17C184.776 100.236 186.293 99.5165 188.161 99.5749C190.106 99.6527 192.013 100.295 193.919 100.645C195.612 100.937 197.343 101.112 199.055 101.17C205.319 101.345 213.684 98.68 218.412 104.302C218.645 104.594 219.073 104.166 218.82 103.894C214.035 98.2131 205.767 100.703 199.425 100.606C197.382 100.567 195.339 100.353 193.316 99.964C191.487 99.5943 189.659 98.9913 187.791 99.0107C186.098 99.0302 184.639 99.6722 183.2 100.509C181.468 101.52 179.756 102.59 178.044 103.641C177.714 103.816 178.005 104.322 178.336 104.127Z" fill="#191919"/>
<path d="M210.572 105.411C212.906 105.683 215.241 105.625 217.556 105.217C218.626 105.022 219.676 104.652 220.746 104.497C221.33 104.419 222.03 104.361 222.555 104.672C223.275 105.08 223.334 105.995 223.353 106.734C223.431 111.928 222.614 117.181 221.155 122.161C221.057 122.531 221.622 122.686 221.719 122.317C222.536 119.535 223.139 116.695 223.509 113.835C223.703 112.356 223.82 110.858 223.898 109.36C223.956 108.115 224.17 106.617 223.8 105.411C223.197 103.388 220.843 103.855 219.307 104.244C216.427 104.983 213.509 105.197 210.572 104.847C210.202 104.769 210.202 105.353 210.572 105.411Z" fill="#191919"/>
<path d="M177.402 103.855C177.461 107.104 178.57 110.236 178.356 113.523C178.161 116.422 177.188 119.185 176.06 121.83C173.92 126.85 171.08 131.655 170.418 137.16C170.399 137.316 170.574 137.452 170.71 137.452C172.189 137.413 173.57 137.802 174.99 138.152C176.332 138.483 177.675 138.756 179.056 138.95C181.779 139.32 184.542 139.378 187.285 139.145C187.655 139.106 187.655 138.522 187.285 138.561C184.406 138.814 181.488 138.736 178.628 138.308C176.002 137.9 173.414 136.83 170.73 136.888C170.827 136.985 170.924 137.082 171.021 137.18C171.722 131.46 174.834 126.499 176.974 121.247C177.986 118.776 178.784 116.208 178.978 113.543C179.192 110.275 178.083 107.142 178.025 103.874C177.986 103.466 177.402 103.466 177.402 103.855Z" fill="#191919"/>
<path opacity="0.13" d="M204.366 117.92C205.416 118.056 209.21 118.581 211.933 116.85C214.112 115.469 215.707 112.551 215.707 109.866C215.707 108.037 214.949 106.384 215.902 105.508C216.155 105.275 216.31 105.314 217.458 105.022C220.26 104.322 220.629 103.777 221.621 104.049C222.789 104.36 223.392 105.372 223.47 105.508C224.112 106.617 223.82 107.843 223.664 108.601C222.575 113.854 223.606 114.01 222.011 119.943C221.699 121.072 221.427 121.986 221.232 122.57C222.049 122.667 223.139 122.725 224.423 122.57C225.532 122.433 227.088 122.239 228.683 121.305C230.279 120.371 230.765 119.36 231.485 119.554C232.127 119.729 232.38 120.663 232.555 121.305C233.761 125.935 233.722 128.192 233.722 128.192C233.625 133.328 233.586 135.915 233.236 137.199C231.718 142.841 228.917 142.218 228.197 146.985C227.749 149.961 228.625 151.595 227.613 155.895C227.263 157.354 226.855 158.521 226.543 159.28C225.182 158.89 223.022 158.385 220.337 158.21C216.388 157.957 214.871 158.657 211.038 158.599C207.692 158.56 202.089 157.937 201.934 156.556C201.681 154.572 213.198 153.56 213.956 148.891C214.462 145.798 209.832 144.261 207.751 139.008C205.727 133.931 207.362 128.503 209.015 124.768C211.369 125.001 213.723 125.215 216.096 125.449C204.346 119.613 202.089 118.037 202.245 117.687C202.303 117.55 203.023 117.725 204.366 117.92Z" fill="#6C6D6D"/>
<path opacity="0.16" d="M231.893 119.866C231.271 119.905 231.543 123.367 230.337 129.165C230.181 129.904 228.936 135.818 226.174 141.674C224.423 145.389 220.785 151.77 213.47 158.054C217.867 158.599 222.263 159.144 226.66 159.708C226.932 158.793 227.341 157.354 227.633 155.545C228.333 151.323 227.691 150.058 228.411 147.218C229.092 144.534 229.909 144.631 231.504 141.012C231.718 140.526 233.294 136.927 233.839 132.783C234.695 126.149 232.749 119.807 231.893 119.866Z" fill="#6C6D6D"/>
<path opacity="0.18" d="M223.373 111.52C222.984 111.403 222.283 114.399 219.89 116.753C217.225 119.379 213.529 120.119 210.397 120.235C212.245 120.994 214.638 121.772 217.478 122.181C218.957 122.395 220.318 122.472 221.544 122.472C223.509 113.874 223.703 111.617 223.373 111.52Z" fill="#6C6D6D"/>
<path d="M121.044 192.06C121.589 195.756 122.133 199.433 122.659 203.129C114.488 213.887 110.928 219.782 111.998 220.793C113.146 221.883 119.682 217.311 131.608 207.078C131.199 200.717 130.79 194.375 130.382 188.013C127.269 189.356 124.157 190.717 121.044 192.06Z" fill="#191919"/>
<path d="M153.28 142.238C148.98 143.638 140.42 146.926 131.899 154.124C128.3 157.159 124.643 160.291 121.647 165.699C119.079 170.329 118.32 174.259 117.192 180.407C116.336 185.076 115.441 191.768 115.558 199.997C118.126 199.802 120.849 199.53 123.729 199.102C127.367 198.577 130.732 197.915 133.825 197.176C133.786 193.11 134.137 188.033 135.46 182.333C136.335 178.578 137.444 175.31 138.572 172.528C146.646 165.057 154.136 161.555 159.661 159.766C166.333 157.587 171.858 157.334 176.138 152.334C178.687 149.377 181.449 143.969 179.562 140.895C175.827 134.864 156.139 141.304 153.28 142.238Z" fill="white" stroke="#191919" stroke-width="0.389083" stroke-miterlimit="10"/>
<path opacity="0.14" d="M177.227 139.222C176.041 139.456 176.371 142.549 175.34 145.331C173.473 150.311 167.909 152.509 163.434 154.28C137.113 164.746 134.214 166.808 131.938 169.979C129.779 172.995 128.845 176.205 126.997 182.624C125.11 189.142 124.429 194.803 124.156 198.849C127.386 198.324 130.615 197.799 133.845 197.273C133.825 195.134 133.922 192.838 134.156 190.426C134.876 183.208 136.666 177.1 138.572 172.314C139.798 171.302 141.51 169.94 143.63 168.423C147.949 165.33 151.062 163.093 155.322 161.361C158.649 159.999 158.921 160.486 167.228 157.684C169.524 156.906 170.769 156.439 172.286 155.466C175.788 153.229 177.519 150.35 178.297 149.047C179.601 146.829 180.554 145.214 180.184 143.152C179.834 141.051 178.259 139.008 177.227 139.222Z" fill="#6C6D6D"/>
<path opacity="0.16" d="M149.116 164.084C142.015 165.388 138.222 168.598 136.471 170.407C133.164 173.831 131.802 178.111 129.195 186.515C127.697 191.359 126.744 195.444 126.141 198.304C128.572 197.993 130.985 197.682 133.416 197.351C133.494 193.246 133.922 189.783 134.37 187.137C134.642 185.464 135.109 182.78 136.16 179.336C137.016 176.535 137.969 174.181 138.786 172.391C142.229 169.629 145.673 166.847 149.116 164.084Z" fill="#6C6D6D"/>
<path d="M124.759 159.493C125.518 158.715 126.685 157.684 128.319 156.964C132.677 155.058 137.171 156.653 139.875 157.587C145.925 159.688 152.345 160.777 158.143 163.462C166.917 167.528 178.433 172.878 190.476 175.018C203.977 177.411 206.856 173.773 225.123 176.496C231.855 177.489 237.302 178.85 240.862 179.862C239.305 182.994 237.691 183.986 236.446 184.278C235.609 184.473 235.181 184.298 234.559 184.706C233.002 185.718 233.819 188.013 232.672 189.745C231.543 191.437 229.364 191.282 227.01 191.846C222.225 192.974 221.758 195.795 216.311 199.413C213.665 201.164 208.685 204.452 203.082 204.238C197.07 204.005 196.312 199.978 189.639 197.721C181.313 194.92 178.784 199.997 167.597 199.199C165.243 199.024 153.649 198.207 145.556 190.173C140.031 184.706 141.042 180.718 134.856 174.434C130.129 169.629 124.837 167.139 121.199 165.816C121.647 164.882 122.152 163.929 122.697 162.937C123.378 161.692 124.078 160.563 124.759 159.493Z" fill="white" stroke="#191919" stroke-width="0.389083" stroke-miterlimit="10"/>
<path d="M127.152 159.455C129.857 159.533 132.483 160.136 134.954 161.245C135.206 161.361 135.44 160.992 135.168 160.875C132.619 159.727 129.934 159.105 127.152 159.007C126.861 159.007 126.861 159.455 127.152 159.455Z" fill="#191919"/>
<path d="M133.592 170.485C138.183 173.111 140.615 178.014 143.805 182.021C147.19 186.262 151.548 189.667 156.47 191.963C156.723 192.079 156.937 191.71 156.684 191.593C151.548 189.181 147.035 185.582 143.591 181.049C140.634 177.158 138.202 172.625 133.825 170.115C133.572 169.96 133.339 170.349 133.592 170.485Z" fill="#191919"/>
<path d="M217.303 184.064C222.789 184.122 228.275 183.811 233.722 183.15C233.995 183.111 233.995 182.683 233.722 182.702C228.275 183.364 222.789 183.675 217.303 183.617C217.011 183.636 217.011 184.064 217.303 184.064Z" fill="#191919"/>
<path d="M215.649 191.32C217.672 192.06 219.735 192.682 221.816 193.149C222.089 193.208 222.205 192.799 221.933 192.721C219.832 192.235 217.77 191.632 215.766 190.892C215.494 190.795 215.377 191.223 215.649 191.32Z" fill="#191919"/>
<path d="M147.424 177.877C152.229 182.138 158.046 185.523 164.271 187.215C167.403 188.052 170.594 188.188 173.765 187.507C177.111 186.787 180.223 185.348 183.2 183.675C183.453 183.539 183.219 183.15 182.986 183.305C180.146 184.9 177.169 186.282 173.998 187.021C170.671 187.799 167.345 187.643 164.057 186.71C158.026 184.998 152.423 181.729 147.735 177.586C147.521 177.372 147.21 177.683 147.424 177.877Z" fill="#191919"/>
<path d="M174.523 175.309C175.807 175.562 176.974 176.127 177.908 177.06C178.92 178.072 179.99 180.426 178.005 181.087C177.733 181.185 177.85 181.593 178.122 181.515C179.64 181.01 179.854 179.298 179.173 178.014C178.278 176.321 176.449 175.251 174.64 174.901C174.368 174.843 174.251 175.271 174.523 175.309Z" fill="#191919"/>
<path d="M181.176 186.71C185.359 184.005 190.378 183.48 195.222 183.033C195.494 183.013 195.494 182.566 195.222 182.585C190.3 183.033 185.203 183.577 180.962 186.321C180.729 186.476 180.943 186.865 181.176 186.71Z" fill="#191919"/>
<path d="M140.44 160.583C144.739 161.731 148.124 164.668 151.704 167.139C155.419 169.707 159.485 171.73 163.765 173.15C164.038 173.248 164.154 172.82 163.882 172.722C159.408 171.244 155.225 169.104 151.392 166.38C147.968 163.968 144.661 161.244 140.537 160.135C140.284 160.097 140.167 160.505 140.44 160.583Z" fill="#191919"/>
<path opacity="0.13" d="M135.712 156.206C141.218 158.774 145.167 161.478 147.754 163.481C150.517 165.621 151.412 166.73 154.408 168.598C156.022 169.609 159.368 171.691 164.115 173.17C169.951 174.998 172.481 174.201 174.718 176.769C175.01 177.099 176.683 179.006 176.43 181.34C176.118 184.258 172.986 186.885 168.531 187.546C169.796 187.566 171.216 187.488 172.753 187.274C176.391 186.768 179.328 185.64 181.468 184.589C180.787 185.387 180.087 186.301 180.301 186.574C180.593 186.943 182.48 185.873 183.803 185.231C186.235 184.044 187.849 183.889 193.588 182.994C206.253 181.029 207.479 180.465 211.467 180.835C214.54 181.126 218.12 181.885 218.12 182.547C218.101 183.227 214.151 183.48 214.171 183.811C214.21 184.22 221.213 186.126 228.178 183.636C229.754 183.072 233.703 181.438 235.084 182.916C235.473 183.325 235.668 184.006 236.349 184.181C237.166 184.395 238.022 183.675 238.586 183.188C239.189 182.683 240.162 181.691 240.823 179.959C240.453 179.842 239.928 179.687 239.306 179.512C237.983 179.142 234.053 178.053 228.353 177.08C226.583 176.788 223.275 176.224 219.365 175.913C211.175 175.251 209.015 176.282 201.584 176.088C199.677 176.029 193.938 175.815 186.935 174.298C180.69 172.936 176.196 171.146 168.706 168.092C162.189 165.446 161.45 164.785 156.586 162.801C151.82 160.836 144.817 158.287 135.712 156.206Z" fill="#6C6D6D"/>
<path opacity="0.18" d="M192.304 198.421C194.347 197.565 196.779 196.748 199.58 196.184C200.748 195.951 201.856 195.776 202.907 195.639C202.596 196.379 202.265 197.118 201.915 197.877C201.02 199.842 200.086 201.651 199.133 203.363C196.857 201.729 194.581 200.075 192.304 198.421Z" fill="#6C6D6D"/>
<path opacity="0.15" d="M227.497 187.293C222.556 188.422 218.898 188.091 218.879 188.363C218.859 188.597 221.33 189.044 232.263 190.075C232.594 189.317 232.944 188.48 233.255 187.566C233.547 186.71 233.781 185.893 233.975 185.134C232.458 185.815 230.259 186.671 227.497 187.293Z" fill="#6C6D6D"/>
<path opacity="0.22" d="M174.698 175.174C174.62 175.329 176.527 175.757 177.48 177.411C178.18 178.636 178.122 180.057 177.83 181.282C178.025 181.204 179.153 180.737 179.445 179.667C179.737 178.559 178.92 177.605 178.453 177.061C177.013 175.349 174.776 174.998 174.698 175.174Z" fill="#6C6D6D"/>
<path opacity="0.15" d="M201.992 175.893C208.724 175.232 217.303 175.076 227.049 176.71C232.03 177.547 236.524 178.695 240.434 179.94C240.278 180.484 239.928 181.399 239.169 182.274C239.169 182.274 238.391 183.169 237.185 183.792C234.209 185.329 229.559 183.792 229.287 183.694C230.571 183.519 231.991 183.228 233.508 182.8C234.384 182.547 235.181 182.274 235.94 181.982C233.372 180.912 230.551 179.901 227.497 179.025C217.789 176.205 208.957 175.66 201.992 175.893Z" fill="#6C6D6D"/>
<path d="M213.198 182.06C213.412 181.807 213.723 181.827 214.541 181.671C215.513 181.477 216.272 181.224 216.797 181.029C219.735 180.212 221.875 179.123 223.334 178.247C226.446 176.36 227.847 174.57 229.715 174.979C230.901 175.251 231.991 176.36 231.894 177.294C231.816 178.092 230.921 178.617 226.446 180.309C219.501 182.936 220.143 182.235 218.062 183.325C216.155 184.336 215.085 185.192 214.112 184.764C213.159 184.297 212.673 182.663 213.198 182.06Z" fill="#191919"/>
<path d="M249.869 166.4C247.009 168.656 247.068 172.333 247.068 172.645C247.107 173.851 247.418 174.804 247.651 175.368C244.208 177.119 243.644 177.839 243.741 178.17C244.014 179.026 249.13 179.162 251.484 176.283C252.029 175.621 252.243 174.96 252.651 173.676C253.468 171.127 254.577 165.991 252.982 165.155C252.068 164.688 250.57 165.855 249.869 166.4Z" fill="#191919"/>
<path d="M229.267 176.711C229.695 175.835 230.746 175.641 232.691 175.193C234.831 174.707 238.45 173.87 240.473 173.112C242.807 172.217 244.189 170.972 246.562 168.832C251.309 164.552 251.523 161.906 253.663 161.809C256.328 161.692 259.655 165.602 259.324 169.085C259.071 171.808 256.678 173.345 252.223 176.185C251.192 176.847 246.737 179.609 239.87 181.107C235.784 182.002 232.886 182.605 230.863 180.913C229.598 179.862 228.684 177.917 229.267 176.711Z" fill="#191919"/>
<path d="M254.908 167.587C252.048 169.843 252.106 173.52 252.106 173.831C252.145 175.038 252.457 175.991 252.69 176.555C249.247 178.306 248.682 179.026 248.78 179.356C249.052 180.212 254.169 180.349 256.522 177.469C257.067 176.808 257.281 176.146 257.69 174.862C258.507 172.314 259.616 167.178 258.02 166.342C257.087 165.855 255.589 167.042 254.908 167.587Z" fill="#191919"/>
<path d="M251.581 163.696C251.931 163.365 252.398 162.898 252.904 162.295C253.215 161.926 254.382 160.525 255.647 157.821C256.367 156.303 256.931 155.097 257.32 153.307C257.689 151.576 258.001 150.039 257.242 148.716C256.619 147.627 255.9 147.043 255.9 147.043C255.258 146.537 254.713 146.343 254.732 146.032C254.771 145.759 255.258 145.526 255.705 145.526C257.067 145.506 258.078 147.899 258.254 148.288C259.148 150.409 258.818 152.432 258.662 153.132C258.565 153.541 258.565 153.424 257.826 155.642C257.106 157.821 257.125 157.86 256.814 158.735C255.763 161.692 255.18 163.326 253.818 163.832C253.429 163.988 252.69 164.124 251.581 163.696Z" fill="#191919"/>
<path d="M225.104 180.018C224.423 179.687 222.556 178.792 222.458 177.43C222.439 177.197 222.653 176.36 223.061 174.707C223.236 174.007 223.256 173.968 223.334 173.617C223.587 172.47 223.509 172.236 223.742 171.711C223.839 171.497 224.268 170.505 224.832 170.485C225.337 170.466 225.902 171.263 226.116 172.45C227.088 172.431 228.333 172.411 229.306 172.392C230.357 172.372 231.602 172.353 232.633 172.333C232.827 172.022 233.158 171.575 233.644 171.108C234.111 170.66 234.442 170.349 234.734 170.427C235.123 170.524 235.201 171.322 235.337 172.333C235.823 175.855 236.251 176.146 235.882 177.1C235.493 178.072 234.714 178.578 233.839 179.142C233.664 179.279 229.248 182.022 225.104 180.018Z" fill="#191919"/>
<path d="M224.501 175.407C225.182 175.271 225.766 175.68 226.291 176.069C226.369 176.127 226.446 175.991 226.369 175.952C225.804 175.524 225.201 175.135 224.462 175.271C224.384 175.271 224.423 175.427 224.501 175.407Z" fill="white"/>
<path d="M229.151 176.069C229.773 175.602 230.473 175.31 231.232 175.213C231.329 175.193 231.329 175.057 231.232 175.057C230.435 175.154 229.715 175.446 229.073 175.932C229.014 175.991 229.073 176.127 229.151 176.069Z" fill="white"/>
<path d="M225.766 173.967C225.96 173.812 226.194 173.753 226.446 173.812C226.544 173.831 226.583 173.695 226.485 173.676C226.194 173.598 225.902 173.676 225.668 173.87C225.59 173.928 225.688 174.026 225.766 173.967Z" fill="white"/>
<path d="M229.111 173.87C229.325 173.792 229.539 173.812 229.734 173.948C229.812 174.006 229.89 173.87 229.812 173.831C229.598 173.695 229.325 173.656 229.092 173.753C228.975 173.773 229.014 173.909 229.111 173.87Z" fill="white"/>
<path d="M227.536 176.905C227.555 176.886 227.575 176.866 227.594 176.827C227.555 176.808 227.536 176.788 227.497 176.769C227.517 176.866 227.497 176.963 227.439 177.041C227.458 177.022 227.497 177.022 227.517 177.002C227.458 176.924 227.458 176.847 227.497 176.788C227.458 176.808 227.419 176.808 227.38 176.827C227.38 176.905 227.38 176.983 227.4 177.061C227.439 177.08 227.478 177.1 227.517 177.119C227.517 177.061 227.517 176.983 227.536 176.905C227.478 176.905 227.439 176.905 227.38 176.905C227.419 177.119 227.4 177.352 227.283 177.547C227.244 177.625 227.147 177.761 227.05 177.819C226.738 177.975 226.738 177.566 226.738 177.43C226.738 177.333 226.583 177.333 226.583 177.43C226.583 177.605 226.602 177.8 226.738 177.936C226.875 178.053 227.03 178.033 227.166 177.917C227.478 177.683 227.575 177.255 227.497 176.886C227.478 176.808 227.361 176.827 227.361 176.905C227.361 176.983 227.361 177.061 227.361 177.138C227.361 177.197 227.439 177.236 227.478 177.197C227.594 177.061 227.594 176.886 227.458 176.769C227.419 176.73 227.361 176.749 227.341 176.808C227.283 176.963 227.264 177.138 227.458 177.197C227.497 177.216 227.517 177.197 227.536 177.158C227.633 177.041 227.653 176.905 227.614 176.769C227.594 176.73 227.555 176.71 227.517 176.71C227.4 176.749 227.361 176.808 227.341 176.924C227.38 177.002 227.536 177.002 227.536 176.905Z" fill="white"/>
<path d="M227.477 176.964C227.322 177.314 227.38 177.878 227.769 178.072C228.197 178.286 228.372 177.742 228.411 177.43C228.411 177.333 228.275 177.333 228.255 177.43C228.236 177.567 228.236 177.703 228.158 177.82C228.022 178.034 227.788 177.975 227.652 177.8C227.477 177.567 227.477 177.275 227.594 177.002C227.652 176.925 227.516 176.886 227.477 176.964Z" fill="white"/>
<path d="M225.863 176.535C225.416 176.302 224.988 176.049 224.579 175.777C224.501 175.718 224.423 175.854 224.501 175.893C224.91 176.166 225.338 176.419 225.785 176.652C225.882 176.71 225.96 176.574 225.863 176.535Z" fill="white"/>
<path d="M225.707 177.002C225.279 176.944 224.851 176.944 224.404 177.002C224.307 177.021 224.307 177.158 224.404 177.158C224.832 177.099 225.26 177.099 225.707 177.158C225.805 177.158 225.805 177.002 225.707 177.002Z" fill="white"/>
<path d="M225.687 177.236C225.279 177.372 224.909 177.625 224.637 177.956C224.579 178.034 224.676 178.131 224.734 178.053C224.987 177.722 225.337 177.489 225.726 177.372C225.824 177.333 225.785 177.197 225.687 177.236Z" fill="white"/>
<path d="M229.034 177.119C229.637 176.71 230.318 176.477 231.038 176.438C231.135 176.438 231.135 176.282 231.038 176.282C230.279 176.341 229.579 176.574 228.956 176.983C228.878 177.041 228.956 177.177 229.034 177.119Z" fill="white"/>
<path d="M229.306 177.469C229.87 177.294 230.435 177.353 230.94 177.625C231.018 177.664 231.096 177.547 231.018 177.508C230.473 177.216 229.87 177.158 229.267 177.333C229.17 177.353 229.209 177.489 229.306 177.469Z" fill="white"/>
<path d="M229.54 177.819C230.007 177.917 230.396 178.15 230.707 178.5C230.765 178.578 230.863 178.461 230.804 178.403C230.474 178.033 230.065 177.78 229.579 177.683C229.481 177.644 229.442 177.8 229.54 177.819Z" fill="white"/>
<path d="M234.364 171.4C234.111 171.789 233.936 172.217 233.858 172.664C233.858 172.723 233.897 172.761 233.956 172.761C234.033 172.742 234.033 172.723 234.111 172.684C234.072 172.703 234.5 172.392 234.364 172.684C234.325 172.742 234.403 172.82 234.461 172.781C234.539 172.781 234.617 172.8 234.695 172.8C234.637 172.878 234.734 172.975 234.792 172.898C234.851 172.82 234.87 172.723 234.792 172.645C234.675 172.528 234.52 172.586 234.384 172.664C234.423 172.703 234.442 172.723 234.481 172.761C234.539 172.645 234.598 172.489 234.442 172.392C234.228 172.256 234.072 172.567 233.917 172.625C233.956 172.664 233.975 172.684 234.014 172.723C234.092 172.275 234.267 171.867 234.5 171.497C234.539 171.4 234.423 171.322 234.364 171.4Z" fill="white"/>
<path d="M224.715 171.477C224.812 171.808 224.851 172.139 224.832 172.469C224.89 172.469 224.929 172.469 224.987 172.469C224.987 172.236 224.715 172.061 224.54 172.275C224.501 172.314 224.501 172.372 224.462 172.392C224.423 172.431 224.365 172.45 224.306 172.489C224.19 172.606 224.17 172.742 224.209 172.878C224.229 172.975 224.365 172.936 224.345 172.839C224.326 172.664 224.384 172.547 224.559 172.508C224.598 172.508 224.618 172.469 224.618 172.431C224.695 172.431 224.754 172.431 224.832 172.431C224.832 172.528 224.968 172.528 224.987 172.431C225.026 172.08 224.987 171.73 224.871 171.399C224.832 171.341 224.695 171.38 224.715 171.477Z" fill="white"/>
<path d="M217.439 184.94C217.653 184.687 217.964 184.706 218.781 184.551C219.754 184.356 220.513 184.103 221.038 183.909C223.976 183.091 226.116 182.002 227.575 181.127C230.687 179.24 232.088 177.45 233.956 177.858C235.142 178.131 236.232 179.24 236.135 180.173C236.057 180.971 235.162 181.496 230.687 183.189C223.742 185.815 224.384 185.115 222.303 186.204C220.396 187.216 219.326 188.072 218.353 187.644C217.381 187.196 216.914 185.562 217.439 184.94Z" fill="#191919"/>
<path d="M162.501 100.469C161.061 99.7108 159.193 100.547 158.162 101.014C156.334 101.831 154.272 103.504 151.918 109.01C150.595 112.084 148.922 116.986 148.396 123.523C146.334 124.418 143.416 125.39 139.856 125.565C136.004 125.74 134 124.865 132.93 126.11C131.588 127.666 132.736 131.402 134.837 133.58C137.191 136.032 140.42 136.187 142.58 136.285C144.155 136.362 149.894 136.44 155.069 132.491C160.069 128.659 161.411 123.445 162.948 117.57C163.337 115.897 166.664 102.648 162.501 100.469Z" fill="white" stroke="#191919" stroke-width="0.389083" stroke-miterlimit="10"/>
<path opacity="0.12" d="M160.906 100.256C159.213 100.859 160.166 105.722 159.738 111.208C159.641 112.376 158.96 120.527 155.517 125.429C149.972 133.308 137.133 132.861 134.137 132.705C134.487 133.308 135.109 134.184 136.141 134.923C137.308 135.74 138.572 136.051 140.245 136.187C141.996 136.324 144.778 136.557 148.455 135.448C150.361 134.865 155.206 133.406 158.454 128.912C159.349 127.686 159.855 126.48 160.886 124.068C161.431 122.784 162.734 119.535 163.727 114.807C163.727 114.807 164.388 111.636 164.349 103.855C164.349 102.979 164.154 102.22 163.61 101.54C162.987 100.684 161.703 99.9638 160.906 100.256Z" fill="#6C6D6D"/>
<path opacity="0.25" d="M163.123 114.477C162.909 114.418 162.326 117.551 159.641 122.375C157.89 125.546 155.575 129.573 151.315 132.589C146.957 135.662 142.852 136.051 142.891 136.168C142.93 136.324 151.237 136.051 156.898 130.585C163.221 124.476 163.493 114.574 163.123 114.477Z" fill="#6C6D6D"/>
<path d="M162.754 97.1042C160.049 98.9718 158.454 101.034 157.695 102.026C153.202 107.94 152.676 114.379 152.501 117.2C152.093 123.465 153.805 124.807 154.038 134.612C154.116 137.861 153.999 140.526 153.902 142.199C156.275 143.93 161.372 147.179 168.648 148.094C177.578 149.222 184.445 146.187 187.052 144.864C188.569 143.444 190.651 141.285 192.577 138.289C194.561 135.215 195.942 131.927 197.81 124.282C198.919 119.729 200.203 113.679 201.195 106.364C199.639 104.127 194.153 96.8902 184.095 94.3028C182.286 93.8359 171.508 91.0734 162.754 97.1042Z" fill="#FFC900"/>
<path opacity="0.09" d="M182.772 94.0305C183.414 96.0148 184.153 98.9135 184.387 102.454C184.795 108.349 183.628 113.524 181.138 120.099C176.858 131.441 170.905 140.993 166.139 147.685C167.948 147.996 170.03 148.21 172.325 148.191C178.589 148.152 183.628 146.421 186.935 144.942C188.083 143.833 189.678 142.141 191.293 139.865C191.993 138.892 194.114 135.799 196.059 130.546C199.6 121.013 200.767 109.185 201.02 106.306C199.464 103.991 196.37 100.12 191.176 97.1821C188.005 95.3729 185.009 94.4974 182.772 94.0305Z" fill="#6C6D6D"/>
<path opacity="0.14" d="M200.514 109.652C197.771 117.084 194.931 122.998 192.713 127.2C190.301 131.771 188.919 134.339 186.527 137.238C181.683 143.094 175.866 146.44 171.313 148.385C173.239 148.346 175.516 148.152 178.006 147.685C181.488 147.004 184.387 145.954 186.624 144.942C188.005 143.853 189.892 142.179 191.701 139.767C194.036 136.635 195.359 133.425 197.071 126.888C198.238 122.453 199.541 116.636 200.514 109.652Z" fill="#6C6D6D"/>
<path d="M154.952 174.551C153.123 177.8 151.295 181.049 149.466 184.298C136.412 187.799 129.992 190.289 130.226 191.749C130.459 193.324 138.436 193.713 154.116 192.896C157.676 187.624 161.236 182.333 164.815 177.061C161.528 176.224 158.24 175.388 154.952 174.551Z" fill="#191919"/>
<path d="M189.425 140.915C194.425 143.872 195.203 152.529 192.888 158.54C189.153 168.19 177.85 169.921 177.364 169.979C181.799 164.882 183.998 162.334 183.998 162.314C183.978 162.295 177.111 170.096 163.396 185.698C162.053 185.523 156.47 184.667 152.521 179.765C150.225 176.924 149.486 173.948 149.233 172.353C157.423 162.898 165.594 153.463 173.784 144.008C178.57 139.495 185.067 138.347 189.425 140.915Z" fill="white" stroke="#191919" stroke-width="0.389083" stroke-miterlimit="10"/>
<path opacity="0.16" d="M189.794 141.421C189.95 143.95 189.853 147.763 188.18 151.829C186.04 157.062 182.382 160.097 179.873 162.12C172.597 167.995 164.29 174.59 154.835 181.71C155.516 182.352 156.372 183.053 157.442 183.695C159.679 185.056 161.819 185.582 163.278 185.796C167.986 180.504 172.694 175.213 177.402 169.921C178.744 169.727 180.631 169.318 182.732 168.443C184.717 167.606 188.219 166.069 190.923 162.373C193.257 159.144 193.763 155.934 194.016 154.183C194.308 152.121 194.697 149.514 193.53 146.498C192.498 143.891 190.787 142.238 189.794 141.421Z" fill="#6C6D6D"/>
<path opacity="0.19" d="M193.51 147.977C193.082 150.545 192.168 154.105 190.047 157.898C186.001 165.057 180.048 168.617 177.285 170.057C179.464 169.707 184.017 168.656 188.063 164.98C189.211 163.929 191.506 161.808 192.907 158.171C194.619 153.638 193.899 149.611 193.51 147.977Z" fill="#6C6D6D"/>
<path opacity="0.12" d="M183.725 162.237C183.2 161.711 174.815 169.065 158.551 184.298C160.088 184.842 161.606 185.368 163.142 185.912C177.363 170.641 184.231 162.743 183.725 162.237Z" fill="#6C6D6D"/>
<path d="M130.518 109.73C130.712 109.73 130.926 109.73 131.121 109.73C131.179 109.516 131.237 109.283 131.296 109.069C131.529 109.555 131.918 110.353 132.405 111.345C134.545 115.683 134.973 116.403 135.362 117.706C135.673 118.776 136.043 120.313 136.159 122.278C136.529 122.025 137.074 121.675 137.774 121.286C141.548 119.224 144.7 119.204 147.54 118.698C149.66 118.309 152.637 117.453 156.119 115.372C155.905 115.664 155.691 115.975 155.477 116.267C155.808 116.383 156.158 116.52 156.489 116.636C156.683 116.889 156.936 117.298 157.15 117.823C158.279 120.605 156.606 123.659 154.991 126.461C148.396 138.055 147.715 138.658 146.528 139.242C146.042 139.495 141.14 141.888 137.657 139.67C136.937 139.223 135.634 138.153 133.961 130.585C132.813 125.43 132.677 122.55 131.588 115.78C131.179 113.212 130.79 111.111 130.518 109.73Z" fill="white" stroke="#191919" stroke-width="0.389083" stroke-miterlimit="10"/>
<path d="M131.627 110.8C133.281 114.341 134.915 117.94 135.42 121.83C135.44 121.928 135.576 121.928 135.576 121.83C135.07 117.901 133.436 114.282 131.763 110.722C131.705 110.644 131.588 110.722 131.627 110.8Z" fill="#191919"/>
<path d="M131.004 110.177C131.977 112.239 132.774 114.36 133.436 116.539C133.455 116.636 133.611 116.597 133.572 116.5C132.91 114.302 132.093 112.181 131.121 110.099C131.082 110.022 130.965 110.099 131.004 110.177Z" fill="#191919"/>
<path d="M133.669 116.422C134.311 118.173 134.739 119.982 134.992 121.83C135.012 121.928 135.148 121.928 135.148 121.83C134.895 119.963 134.467 118.153 133.825 116.383C133.786 116.305 133.63 116.344 133.669 116.422Z" fill="#191919"/>
<path d="M131.977 113.66C132.872 115.858 133.65 118.115 134.292 120.41C134.311 120.507 134.467 120.469 134.428 120.371C133.786 118.076 133.008 115.819 132.113 113.621C132.094 113.523 131.938 113.562 131.977 113.66Z" fill="#191919"/>
<path d="M136.51 122.764C138.941 121.149 141.665 120.099 144.564 119.69C144.661 119.671 144.622 119.535 144.525 119.554C141.607 119.963 138.883 121.013 136.432 122.628C136.354 122.686 136.432 122.822 136.51 122.764Z" fill="#191919"/>
<path d="M137.716 122.531C140.245 120.994 143.104 120.41 145.945 119.768C148.96 119.087 151.898 118.173 154.757 117.006C154.835 116.967 154.796 116.831 154.718 116.869C151.761 118.095 148.707 119.009 145.575 119.71C142.832 120.332 140.069 120.935 137.638 122.414C137.579 122.453 137.638 122.57 137.716 122.531Z" fill="#191919"/>
<path d="M137.249 123.212C140.245 121.792 143.299 120.916 146.509 120.138C149.661 119.36 152.715 118.154 155.789 117.103C155.886 117.064 155.847 116.928 155.75 116.967C152.579 118.056 149.408 119.321 146.14 120.08C143.046 120.819 140.07 121.733 137.171 123.095C137.093 123.134 137.171 123.251 137.249 123.212Z" fill="#191919"/>
<path d="M130.42 109.691C131.841 114.185 133.28 118.659 134.7 123.153C135.401 123.387 136.101 123.62 136.801 123.854C143.455 121.655 150.089 119.476 156.742 117.278C156.975 117.473 157.209 117.667 157.442 117.881C158.201 127.122 158.979 136.343 159.738 145.584C159.465 145.759 159.213 145.915 158.94 146.09C152.19 147.121 145.458 148.152 138.708 149.183C137.735 148.95 136.782 148.716 135.809 148.483C134.953 144.689 134.078 140.915 133.222 137.121C131.957 128.153 130.693 119.185 129.428 110.216C129.759 110.022 130.09 109.866 130.42 109.691Z" fill="white" stroke="#191919" stroke-width="0.389083" stroke-miterlimit="10"/>
<path d="M134.37 123.27C134.681 131.694 135.284 140.137 135.751 148.56C135.77 148.833 136.198 148.833 136.198 148.56C135.731 140.137 135.128 131.713 134.817 123.27C134.798 122.998 134.37 122.998 134.37 123.27Z" fill="#191919"/>
<path d="M136.393 123.815C136.666 126.208 136.782 128.601 136.782 131.013C136.782 131.285 137.21 131.285 137.23 131.013C137.23 128.601 137.113 126.208 136.841 123.815C136.802 123.523 136.354 123.523 136.393 123.815Z" fill="#191919"/>
<path d="M141.704 124.476C141.821 125.935 141.918 127.394 142.035 128.853C146.334 127.55 150.634 126.227 154.913 124.923C154.777 123.406 154.641 121.889 154.524 120.371C150.244 121.752 145.984 123.114 141.704 124.476Z" fill="#FFC900"/>
<path opacity="0.16" d="M148.493 120.196C148.571 122.142 148.513 126.499 146.023 131.188C143.377 136.168 139.506 138.736 137.833 139.709C137.755 138.114 137.657 136.518 137.58 134.943C136.918 136.051 136.276 137.16 135.615 138.269C135.751 141.732 135.907 145.195 136.043 148.677C136.977 148.872 137.91 149.066 138.864 149.28C145.42 148.23 151.995 147.179 158.551 146.129C158.901 145.993 159.232 145.837 159.582 145.701C158.843 136.343 158.104 127.005 157.365 117.648C154.407 118.504 151.45 119.34 148.493 120.196Z" fill="#6C6D6D"/>
<path opacity="0.1" d="M136.49 123.99C136.354 123.99 136.198 127.589 136.296 131.499C136.412 137.063 136.938 139.495 136.782 144.806C136.724 146.537 136.626 147.957 136.548 148.872C137.268 148.969 138.007 149.066 138.727 149.164C138.591 148.21 138.397 146.829 138.202 145.175C136.685 132.803 136.704 123.99 136.49 123.99Z" fill="#6C6D6D"/>
<path d="M130.537 123.212C130.323 123.289 130.343 123.679 130.168 125.488C130.051 126.713 130.012 126.733 130.051 127.025C130.148 127.842 130.44 127.997 130.537 128.931C130.596 129.534 130.479 129.612 130.576 130.118C130.693 130.74 130.965 131.207 131.179 131.499C131.179 131.694 131.218 132.024 131.374 132.355C131.685 132.958 132.405 133.483 132.794 133.289C133.008 133.192 133.066 132.783 133.164 131.985C133.261 131.246 133.203 131.207 133.28 130.351C133.358 129.651 133.417 129.515 133.358 129.165C133.3 128.737 133.144 128.6 132.989 128.153C132.775 127.53 132.872 127.297 132.736 126.655C132.541 125.585 132.035 124.826 131.763 124.418C131.491 123.97 130.887 123.095 130.537 123.212Z" fill="white"/>
<path d="M130.382 123.017C129.331 125.293 130.382 127.842 132.755 128.678C133.027 128.775 133.144 128.347 132.872 128.25C130.771 127.511 129.837 125.254 130.771 123.231C130.887 122.997 130.498 122.764 130.382 123.017Z" fill="#191919"/>
<path d="M130.46 123.387C131.86 124.69 132.677 126.402 132.794 128.308C132.814 128.581 133.242 128.581 133.242 128.308C133.125 126.285 132.269 124.457 130.771 123.075C130.557 122.881 130.246 123.192 130.46 123.387Z" fill="#191919"/>
<path d="M129.895 125.741C129.39 128.017 130.732 130.176 133.047 130.663C133.319 130.721 133.436 130.293 133.164 130.235C131.102 129.807 129.857 127.919 130.323 125.838C130.362 125.585 129.954 125.468 129.895 125.741Z" fill="#191919"/>
<path d="M130.304 128.62C129.896 130.351 130.946 132.005 132.697 132.336C132.969 132.394 133.086 131.966 132.814 131.908C131.296 131.635 130.362 130.254 130.713 128.737C130.79 128.464 130.382 128.348 130.304 128.62Z" fill="#191919"/>
<path d="M130.868 131.382C130.79 132.219 131.277 133.056 132.055 133.367C132.385 133.503 132.813 133.522 133.066 133.231C133.339 132.919 133.222 132.452 133.066 132.122C132.969 131.869 132.541 131.986 132.638 132.238C132.736 132.452 132.93 132.88 132.619 133.017C132.385 133.114 132.016 132.88 131.841 132.744C131.432 132.414 131.238 131.908 131.296 131.382C131.335 131.11 130.907 131.11 130.868 131.382Z" fill="#191919"/>
<path d="M132.872 132.297C133.3 132.297 133.475 131.869 133.533 131.499C133.611 131.052 133.533 130.585 133.3 130.196C133.164 129.943 132.774 130.176 132.93 130.41C133.066 130.643 133.144 130.896 133.144 131.149C133.144 131.285 133.105 131.849 132.872 131.849C132.599 131.869 132.599 132.297 132.872 132.297Z" fill="#191919"/>
<path d="M133.417 130.507C133.689 130.254 133.689 129.767 133.631 129.417C133.572 128.97 133.378 128.581 133.066 128.25C132.872 128.036 132.561 128.347 132.755 128.561C132.95 128.775 133.105 129.028 133.164 129.339C133.203 129.553 133.261 130.02 133.086 130.195C132.911 130.409 133.222 130.721 133.417 130.507Z" fill="#191919"/>
<path d="M195.553 103.077C190.573 103.155 187.344 110.781 186.371 113.076C184.97 116.403 185.223 117.784 183.2 126.402C182.5 129.437 181.838 131.888 181.41 133.464C179.601 134.34 176.06 135.721 171.586 135.332C168.921 135.098 165.905 134.826 163.746 132.628C161.645 130.488 161.859 128.095 159.641 127.355C158.201 126.869 156.47 127.317 156.256 127.978C156.12 128.445 156.762 128.815 157.579 130.39C157.871 130.974 158.085 131.46 158.201 131.83C155.594 132.53 153.416 132.803 151.801 132.919C147.891 133.192 145.284 132.686 144.506 134.067C144.194 134.612 144.078 135.682 144.603 136.421C144.875 136.81 145.245 137.005 145.478 137.102C145.439 137.16 144.875 137.88 145.167 138.775C145.439 139.612 146.198 139.903 146.276 139.923C146.237 140.02 145.906 140.818 146.373 141.615C146.821 142.374 147.618 142.53 147.716 142.53C147.638 142.802 147.56 143.269 147.754 143.716C148.046 144.417 148.805 144.728 149.466 144.942C153.027 146.051 155.964 145.584 155.964 145.584C159.291 145.059 161.761 143.561 163.201 142.491C164.718 143.872 167.831 146.323 172.461 147.529C174.115 147.957 179.251 149.241 184.892 147.121C190.884 144.884 193.9 140.156 196.507 136.071C199.308 131.674 200.339 127.959 201.701 123.076C203.627 116.15 204.561 112.609 202.829 108.952C201.662 106.345 198.841 103.018 195.553 103.077Z" fill="white" stroke="#191919" stroke-width="0.389083" stroke-miterlimit="10"/>
<path d="M145.206 137.121C147.755 137.958 150.42 138.055 153.007 137.433C153.28 137.374 153.163 136.946 152.89 137.005C150.361 137.608 147.793 137.51 145.323 136.693C145.05 136.615 144.934 137.024 145.206 137.121Z" fill="#191919"/>
<path d="M146.257 140.059C148.747 140.681 151.295 140.701 153.805 140.156C154.077 140.098 153.96 139.67 153.688 139.728C151.256 140.253 148.786 140.214 146.373 139.631C146.101 139.553 145.984 139.981 146.257 140.059Z" fill="#191919"/>
<path d="M147.463 142.607C149.7 143.288 151.995 143.405 154.272 142.938C154.544 142.88 154.427 142.452 154.155 142.51C151.937 142.958 149.719 142.841 147.579 142.179C147.307 142.102 147.19 142.53 147.463 142.607Z" fill="#191919"/>
<path opacity="0.12" d="M200.067 104.847C199.911 108.426 199.347 113.796 197.402 120.001C195.145 127.2 192.752 134.826 185.535 139.572C183.725 140.759 178.998 143.833 172.52 143.288C167.676 142.88 164.193 140.662 162.598 139.475C159.466 140.954 156.762 141.537 154.972 141.771C152.676 142.082 151.062 141.985 150.634 141.946C148.786 141.81 147.288 141.421 146.198 141.051C146.646 141.557 147.093 142.062 147.521 142.549C147.463 142.918 147.443 143.522 147.793 144.047C148.183 144.65 148.863 144.883 150.089 145.117C151.762 145.428 152.599 145.584 154.077 145.564C155.42 145.525 157.307 145.467 159.563 144.592C160.497 144.222 161.762 143.619 163.104 142.549C163.94 143.249 165.186 144.202 166.82 145.117C168.707 146.187 172.617 148.346 177.986 148.307C179.523 148.288 183.083 148.229 186.935 146.187C189.406 144.864 190.904 143.308 192.421 141.673C195.612 138.249 197.246 135.001 198.53 132.374C200.573 128.211 201.39 125.04 202.596 120.235C204.055 114.535 203.919 112.803 203.666 111.558C203.063 108.426 201.312 106.17 200.067 104.847Z" fill="#6C6D6D"/>
<path opacity="0.2" d="M203.083 116.539C201.234 122.959 198.958 127.978 197.168 131.421C192.772 139.923 189.698 142.063 188.628 142.763C184.971 145.136 181.372 145.603 179.854 145.778C170.536 146.79 163.493 141.732 163.202 142.316C162.968 142.782 167.229 146.343 173.123 147.627C174.874 148.016 180.107 149.086 185.788 146.557C189.99 144.689 192.324 141.79 194.114 139.553C196.682 136.363 197.888 133.503 199.25 130.157C200.573 127.005 202.149 122.395 203.083 116.539Z" fill="#6C6D6D"/>
<path opacity="0.12" d="M147.891 143.736C149.253 144.164 150.945 144.533 152.949 144.631C157.735 144.845 161.45 143.249 163.396 142.238C162.676 142.919 159.388 145.876 154.447 145.778C151.256 145.72 148.922 144.417 147.891 143.736Z" fill="#6C6D6D"/>
<path d="M161.839 71.0354C161.197 72.1248 161.041 74.148 160.73 78.1945C160.399 82.5717 160.633 84.556 160.477 87.8049C160.36 90.3534 160.01 93.9913 158.979 98.4074C160.73 101.734 162.831 102.999 163.979 103.524C169.776 106.209 177.033 101.967 181.838 99.1466C184.192 97.7654 185.982 96.4231 187.091 95.5282C186.624 94.5944 185.982 93.1937 185.476 91.4039C184.639 88.5247 184.717 86.7932 184.484 83.5444C183.919 75.86 183.9 74.148 182.733 71.8135C182.149 70.6463 181.663 69.6347 180.651 68.6814C175.807 64.1486 164.971 65.7827 161.839 71.0354Z" fill="white" stroke="#161616" stroke-width="0.389083" stroke-miterlimit="10"/>
<path d="M160.341 83.9723C159.544 85.0811 158.046 87.474 157.559 90.8979C157.365 92.3375 157.19 95.1 158.338 98.2711C158.843 99.6523 160.069 102.823 163.357 105.061C165.224 106.345 167.072 106.811 168.181 107.025C167.52 106.306 166.878 105.586 166.217 104.866C166.917 105.255 168.59 106.053 170.827 105.955C171.508 105.917 173.706 105.741 175.749 104.185C177.247 103.037 177.87 101.734 178.901 99.4772C180.262 96.5202 181.216 94.3997 181.157 91.6177C181.079 87.9993 179.348 87.1433 179.971 83.7583C180.107 82.9995 180.535 80.665 181.935 80.3149C182.597 80.1592 183.317 80.49 183.706 80.8985C184.542 81.7739 184.465 83.5637 183.219 85.0228C183.823 84.8866 185.204 84.4391 186.176 83.1552C187.655 81.1708 187.285 78.3111 185.885 76.6769C185.535 76.2684 184.893 75.5097 183.92 75.393C182.616 75.2373 181.527 76.3657 179.601 78.6418C175.574 83.4081 175.632 84.2446 173.609 85.7231C171.177 87.4935 168.979 87.8242 168.337 87.9214C167.248 88.0576 165.613 88.2522 163.824 87.4351C161.684 86.4235 160.672 84.6337 160.341 83.9723Z" fill="#161616"/>
<path d="M166.274 78.4864C165.769 81.0155 165.477 83.6223 165.496 86.2098C165.496 86.7739 165.496 87.6299 166.197 87.805C166.936 87.9801 168.025 87.0657 168.57 86.6961C168.881 86.4821 168.589 85.9763 168.278 86.1903C167.792 86.521 166.177 87.7077 166.08 86.5794C166.022 85.7429 166.099 84.848 166.138 84.0114C166.236 82.2022 166.488 80.4124 166.839 78.6421C166.916 78.2919 166.352 78.1363 166.274 78.4864Z" fill="#161616"/>
<path d="M163.259 80.6654C162.967 80.1985 162.948 79.6343 163.24 79.1674C163.065 79.1479 162.889 79.1285 162.714 79.0896C162.928 79.6343 163.026 80.2179 162.948 80.8015C163.084 80.7432 163.24 80.6848 163.376 80.6264C163.317 80.5875 163.259 80.5681 163.201 80.5292C162.87 80.3541 162.578 80.8599 162.909 81.035C162.967 81.0739 163.026 81.0933 163.084 81.1323C163.24 81.2101 163.493 81.1517 163.512 80.9572C163.609 80.2568 163.551 79.5759 163.279 78.9339C163.181 78.7005 162.889 78.6421 162.753 78.8561C162.364 79.4981 162.364 80.2957 162.773 80.9377C162.948 81.2879 163.454 80.9961 163.259 80.6654Z" fill="#161616"/>
<path d="M171.625 80.4901C171.508 80.2761 171.43 80.0621 171.43 79.8092C171.43 79.6925 171.45 79.5952 171.469 79.4785C171.488 79.4201 171.508 79.3618 171.527 79.3034C171.605 79.1867 171.547 79.1672 171.352 79.2256C171.333 79.245 171.488 79.8481 171.488 79.9065C171.508 80.1788 171.469 80.4512 171.411 80.7236C171.566 80.6846 171.741 80.6457 171.897 80.5874C171.761 80.4707 171.683 80.3539 171.683 80.1594C171.663 79.7898 171.08 79.7898 171.099 80.1594C171.119 80.4901 171.236 80.7819 171.488 80.9959C171.644 81.1321 171.916 81.0932 171.975 80.8597C172.072 80.3928 172.091 79.9065 172.014 79.4396C171.955 79.1283 171.839 78.6225 171.43 78.6614C171.041 78.7003 170.924 79.2256 170.885 79.5369C170.827 79.9649 170.924 80.3734 171.138 80.7625C171.313 81.1126 171.819 80.8208 171.625 80.4901Z" fill="#161616"/>
<path d="M171.099 79.4395C171.138 79.7896 171.158 80.1398 171.197 80.49C171.235 80.8596 171.819 80.8596 171.78 80.49C171.741 80.1398 171.722 79.7896 171.683 79.4395C171.644 79.0698 171.06 79.0698 171.099 79.4395Z" fill="#161616"/>
<path d="M171.06 80.2374C171.002 80.4903 170.983 80.7822 171.177 80.9572C171.372 81.1323 171.683 81.1712 171.858 80.9572C171.955 80.8405 171.975 80.6654 171.858 80.5487C171.761 80.4514 171.547 80.432 171.45 80.5487C171.411 80.6071 171.488 80.5293 171.527 80.5098C171.547 80.5098 171.586 80.5098 171.566 80.5098C171.547 80.5098 171.605 80.5293 171.566 80.5098C171.586 80.5293 171.586 80.5487 171.605 80.5682C171.625 80.5876 171.605 80.5293 171.605 80.5487C171.605 80.5682 171.605 80.5098 171.605 80.4903C171.605 80.5293 171.605 80.4709 171.605 80.4709C171.605 80.432 171.625 80.4125 171.625 80.3736C171.663 80.218 171.586 80.0429 171.43 80.0234C171.274 80.004 171.099 80.0818 171.06 80.2374Z" fill="#161616"/>
<path d="M162.617 78.9922C162.462 79.5758 162.461 80.1983 162.675 80.782C162.792 81.1321 163.356 80.9765 163.24 80.6263C163.065 80.14 163.045 79.6536 163.181 79.1478C163.279 78.7976 162.714 78.642 162.617 78.9922Z" fill="#161616"/>
<path d="M163.143 80.0039C163.084 79.7705 163.104 79.5175 163.162 79.2841C162.967 79.2257 162.792 79.1868 162.598 79.1285C162.52 79.4981 162.52 79.8483 162.578 80.2179C162.598 80.3735 162.792 80.4514 162.929 80.4124C163.084 80.3735 163.162 80.2179 163.123 80.0623C163.084 79.8094 163.084 79.537 163.143 79.2841C163.22 78.9145 162.676 78.7588 162.578 79.1285C162.501 79.4786 162.501 79.8094 162.559 80.1595C162.656 80.5292 163.201 80.3735 163.143 80.0039Z" fill="#161616"/>
<path d="M161.878 77.8833C162.19 76.969 163.298 76.7939 163.921 77.5137C164.115 77.7277 164.407 77.4164 164.232 77.2024C163.376 76.2297 161.878 76.5604 161.47 77.7666C161.353 78.0389 161.781 78.1557 161.878 77.8833Z" fill="#161616"/>
<path d="M170.126 77.8833C170.827 76.755 172.48 77.4942 172.889 78.4669C172.986 78.7199 173.414 78.6031 173.317 78.3502C172.772 77.0079 170.671 76.2103 169.757 77.6499C169.601 77.9028 169.99 78.1168 170.126 77.8833Z" fill="#161616"/>
<path d="M153.902 72.2807C164.602 73.7008 175.282 75.1015 185.982 76.5217C187.091 76.6773 187.091 74.907 185.982 74.7708C175.282 73.3507 164.602 71.95 153.902 70.5298C152.793 70.3742 152.793 72.125 153.902 72.2807Z" fill="#161616"/>
<path d="M161.372 71.5413C161.625 70.2573 162.228 68.1563 163.745 66.0163C164.349 65.1604 165.399 63.6624 167.208 62.5924C170.632 60.5497 175.885 60.7443 179.678 63.3122C183.394 65.8218 185.223 70.2573 184.386 74.6734C176.721 73.6229 169.037 72.5918 161.372 71.5413Z" fill="#FFC900"/>
<path d="M171.858 61.3667C174.854 61.9698 177.091 64.4016 177.363 67.2613C177.597 69.6153 176.449 71.9692 174.406 73.3699C177.772 73.7979 181.118 74.2454 184.484 74.6734C184.659 73.8563 184.834 72.6307 184.62 71.1911C184.153 67.9228 182.188 65.8606 181.313 64.9657C180.632 64.2848 178.142 61.8142 174.231 61.3667C173.278 61.25 172.442 61.3083 171.858 61.3667Z" fill="#D2A600"/>
<path opacity="0.24" d="M173.823 74.9264C174.134 76.0158 174.445 77.4749 174.426 79.2063C174.387 82.5719 173.2 85.1398 172.441 86.4627C173.083 86.1514 173.998 85.6262 174.873 84.7507C175.496 84.1282 175.729 83.6808 176.391 82.7081C176.391 82.7081 177.499 81.0739 179.153 79.0896C179.795 78.3114 180.748 77.222 182.071 75.9964C179.309 75.6267 176.566 75.2766 173.823 74.9264Z" fill="#6C6D6D"/>
<path opacity="0.22" d="M181.721 80.2763C181.216 80.4708 180.924 80.8599 180.729 81.1323C180.496 81.463 180.243 81.9299 180.068 83.1749C179.912 84.2449 179.757 85.2176 179.971 86.4627C180.126 87.3965 180.321 87.4159 180.632 88.5637C180.768 89.0501 181.196 90.6453 181.099 92.5129C181.04 93.9331 180.71 94.9253 180.243 96.326C179.815 97.5905 179.115 99.3219 177.947 101.287C180.087 100.081 182.266 98.7577 184.464 97.3376C185.379 96.7539 186.254 96.1703 187.13 95.5672C186.643 94.7307 186.157 93.758 185.748 92.6686C184.542 89.4781 184.367 86.56 184.464 84.5173C184.095 84.6729 183.725 84.8285 183.375 84.9842C184.523 83.1749 184.464 81.3073 183.608 80.607C183.219 80.2568 182.422 80.0039 181.721 80.2763Z" fill="#6C6D6D"/>
<path opacity="0.21" d="M184.017 81.3269C183.842 82.0467 183.589 82.8832 183.161 83.7976C182.85 84.459 182.519 85.0232 182.208 85.5095C182.791 86.1321 183.744 87.3577 184.153 89.128C184.6 91.0345 184.192 92.5714 183.725 94.2639C183.394 95.509 182.733 97.3571 181.429 99.3609C183.258 98.1159 185.087 96.8902 186.916 95.6452C186.215 94.0888 185.476 92.0462 185.009 89.556C184.659 87.6495 184.562 85.9181 184.581 84.4979C184.114 84.673 183.667 84.8481 183.2 85.0232C183.414 84.8092 183.939 84.2256 184.153 83.3112C184.367 82.3774 184.114 81.5993 184.017 81.3269Z" fill="#6C6D6D"/>
<path opacity="0.19" d="M173.687 74.8485C176.002 75.6656 178.336 76.4827 180.651 77.2997C181.177 76.8717 181.702 76.4243 182.247 75.9963C179.387 75.6072 176.547 75.2181 173.687 74.8485Z" fill="#6C6D6D"/>
</svg>
