<svg width="140" height="180" viewBox="0 0 140 180" fill="none" xmlns="http://www.w3.org/2000/svg">
<path d="M6.33902 158.1C7.81902 158.1 9.11235 158.387 10.219 158.96C11.339 159.52 12.199 160.333 12.799 161.4C13.4124 162.453 13.719 163.687 13.719 165.1C13.719 166.513 13.4124 167.74 12.799 168.78C12.199 169.82 11.339 170.62 10.219 171.18C9.11235 171.727 7.81902 172 6.33902 172H1.79902V158.1H6.33902ZM6.33902 170.14C7.96569 170.14 9.21235 169.7 10.079 168.82C10.9457 167.94 11.379 166.7 11.379 165.1C11.379 163.487 10.9457 162.227 10.079 161.32C9.21235 160.413 7.96569 159.96 6.33902 159.96H4.07902V170.14H6.33902ZM15.626 166.44C15.626 165.333 15.8527 164.353 16.306 163.5C16.7727 162.647 17.3993 161.987 18.186 161.52C18.986 161.04 19.866 160.8 20.826 160.8C21.6927 160.8 22.446 160.973 23.086 161.32C23.7393 161.653 24.2593 162.073 24.646 162.58V160.98H26.946V172H24.646V170.36C24.2593 170.88 23.7327 171.313 23.066 171.66C22.3993 172.007 21.6393 172.18 20.786 172.18C19.8393 172.18 18.9727 171.94 18.186 171.46C17.3993 170.967 16.7727 170.287 16.306 169.42C15.8527 168.54 15.626 167.547 15.626 166.44ZM24.646 166.48C24.646 165.72 24.486 165.06 24.166 164.5C23.8593 163.94 23.4527 163.513 22.946 163.22C22.4393 162.927 21.8927 162.78 21.306 162.78C20.7193 162.78 20.1727 162.927 19.666 163.22C19.1593 163.5 18.746 163.92 18.426 164.48C18.1193 165.027 17.966 165.68 17.966 166.44C17.966 167.2 18.1193 167.867 18.426 168.44C18.746 169.013 19.1593 169.453 19.666 169.76C20.186 170.053 20.7327 170.2 21.306 170.2C21.8927 170.2 22.4393 170.053 22.946 169.76C23.4527 169.467 23.8593 169.04 24.166 168.48C24.486 167.907 24.646 167.24 24.646 166.48ZM32.628 162.58C32.9613 162.02 33.4013 161.587 33.948 161.28C34.508 160.96 35.168 160.8 35.928 160.8V163.16H35.348C34.4546 163.16 33.7746 163.387 33.308 163.84C32.8546 164.293 32.628 165.08 32.628 166.2V172H30.348V160.98H32.628V162.58ZM40.711 157.2V172H38.431V157.2H40.711ZM54.2117 166.22C54.2117 166.633 54.1851 167.007 54.1317 167.34H45.7117C45.7784 168.22 46.1051 168.927 46.6917 169.46C47.2784 169.993 47.9984 170.26 48.8517 170.26C50.0784 170.26 50.9451 169.747 51.4517 168.72H53.9117C53.5784 169.733 52.9717 170.567 52.0917 171.22C51.2251 171.86 50.1451 172.18 48.8517 172.18C47.7984 172.18 46.8517 171.947 46.0117 171.48C45.1851 171 44.5317 170.333 44.0517 169.48C43.5851 168.613 43.3517 167.613 43.3517 166.48C43.3517 165.347 43.5784 164.353 44.0317 163.5C44.4984 162.633 45.1451 161.967 45.9717 161.5C46.8117 161.033 47.7717 160.8 48.8517 160.8C49.8917 160.8 50.8184 161.027 51.6317 161.48C52.4451 161.933 53.0784 162.573 53.5317 163.4C53.9851 164.213 54.2117 165.153 54.2117 166.22ZM51.8317 165.5C51.8184 164.66 51.5184 163.987 50.9317 163.48C50.3451 162.973 49.6184 162.72 48.7517 162.72C47.9651 162.72 47.2917 162.973 46.7317 163.48C46.1717 163.973 45.8384 164.647 45.7317 165.5H51.8317ZM62.4228 160.8C63.2894 160.8 64.0628 160.98 64.7428 161.34C65.4361 161.7 65.9761 162.233 66.3628 162.94C66.7494 163.647 66.9428 164.5 66.9428 165.5V172H64.6828V165.84C64.6828 164.853 64.4361 164.1 63.9428 163.58C63.4494 163.047 62.7761 162.78 61.9228 162.78C61.0694 162.78 60.3894 163.047 59.8828 163.58C59.3894 164.1 59.1428 164.853 59.1428 165.84V172H56.8628V160.98H59.1428V162.24C59.5161 161.787 59.9894 161.433 60.5628 161.18C61.1494 160.927 61.7694 160.8 62.4228 160.8ZM80.3583 166.22C80.3583 166.633 80.3317 167.007 80.2783 167.34H71.8583C71.925 168.22 72.2517 168.927 72.8383 169.46C73.425 169.993 74.145 170.26 74.9983 170.26C76.225 170.26 77.0917 169.747 77.5983 168.72H80.0583C79.725 169.733 79.1183 170.567 78.2383 171.22C77.3717 171.86 76.2917 172.18 74.9983 172.18C73.945 172.18 72.9983 171.947 72.1583 171.48C71.3317 171 70.6783 170.333 70.1983 169.48C69.7317 168.613 69.4983 167.613 69.4983 166.48C69.4983 165.347 69.725 164.353 70.1783 163.5C70.645 162.633 71.2917 161.967 72.1183 161.5C72.9583 161.033 73.9183 160.8 74.9983 160.8C76.0383 160.8 76.965 161.027 77.7783 161.48C78.5917 161.933 79.225 162.573 79.6783 163.4C80.1317 164.213 80.3583 165.153 80.3583 166.22ZM77.9783 165.5C77.965 164.66 77.665 163.987 77.0783 163.48C76.4917 162.973 75.765 162.72 74.8983 162.72C74.1117 162.72 73.4383 162.973 72.8783 163.48C72.3183 163.973 71.985 164.647 71.8783 165.5H77.9783ZM93.192 172.14C92.2586 172.14 91.4186 171.98 90.672 171.66C89.9253 171.327 89.3386 170.86 88.912 170.26C88.4853 169.66 88.272 168.96 88.272 168.16H90.712C90.7653 168.76 90.9986 169.253 91.412 169.64C91.8386 170.027 92.432 170.22 93.192 170.22C93.9786 170.22 94.592 170.033 95.032 169.66C95.472 169.273 95.692 168.78 95.692 168.18C95.692 167.713 95.552 167.333 95.272 167.04C95.0053 166.747 94.6653 166.52 94.252 166.36C93.852 166.2 93.292 166.027 92.572 165.84C91.6653 165.6 90.9253 165.36 90.352 165.12C89.792 164.867 89.312 164.48 88.912 163.96C88.512 163.44 88.312 162.747 88.312 161.88C88.312 161.08 88.512 160.38 88.912 159.78C89.312 159.18 89.872 158.72 90.592 158.4C91.312 158.08 92.1453 157.92 93.092 157.92C94.4386 157.92 95.5386 158.26 96.392 158.94C97.2586 159.607 97.7386 160.527 97.832 161.7H95.312C95.272 161.193 95.032 160.76 94.592 160.4C94.152 160.04 93.572 159.86 92.852 159.86C92.1986 159.86 91.6653 160.027 91.252 160.36C90.8386 160.693 90.632 161.173 90.632 161.8C90.632 162.227 90.7586 162.58 91.012 162.86C91.2786 163.127 91.612 163.34 92.012 163.5C92.412 163.66 92.9586 163.833 93.652 164.02C94.572 164.273 95.3186 164.527 95.892 164.78C96.4786 165.033 96.972 165.427 97.372 165.96C97.7853 166.48 97.992 167.18 97.992 168.06C97.992 168.767 97.7986 169.433 97.412 170.06C97.0386 170.687 96.4853 171.193 95.752 171.58C95.032 171.953 94.1786 172.14 93.192 172.14ZM106.79 160.8C107.63 160.8 108.376 160.98 109.03 161.34C109.696 161.7 110.216 162.233 110.59 162.94C110.976 163.647 111.17 164.5 111.17 165.5V172H108.91V165.84C108.91 164.853 108.663 164.1 108.17 163.58C107.676 163.047 107.003 162.78 106.15 162.78C105.296 162.78 104.616 163.047 104.11 163.58C103.616 164.1 103.37 164.853 103.37 165.84V172H101.09V157.2H103.37V162.26C103.756 161.793 104.243 161.433 104.83 161.18C105.43 160.927 106.083 160.8 106.79 160.8ZM119.265 172.18C118.225 172.18 117.285 171.947 116.445 171.48C115.605 171 114.945 170.333 114.465 169.48C113.985 168.613 113.745 167.613 113.745 166.48C113.745 165.36 113.992 164.367 114.485 163.5C114.978 162.633 115.652 161.967 116.505 161.5C117.358 161.033 118.312 160.8 119.365 160.8C120.418 160.8 121.372 161.033 122.225 161.5C123.078 161.967 123.752 162.633 124.245 163.5C124.738 164.367 124.985 165.36 124.985 166.48C124.985 167.6 124.732 168.593 124.225 169.46C123.718 170.327 123.025 171 122.145 171.48C121.278 171.947 120.318 172.18 119.265 172.18ZM119.265 170.2C119.852 170.2 120.398 170.06 120.905 169.78C121.425 169.5 121.845 169.08 122.165 168.52C122.485 167.96 122.645 167.28 122.645 166.48C122.645 165.68 122.492 165.007 122.185 164.46C121.878 163.9 121.472 163.48 120.965 163.2C120.458 162.92 119.912 162.78 119.325 162.78C118.738 162.78 118.192 162.92 117.685 163.2C117.192 163.48 116.798 163.9 116.505 164.46C116.212 165.007 116.065 165.68 116.065 166.48C116.065 167.667 116.365 168.587 116.965 169.24C117.578 169.88 118.345 170.2 119.265 170.2ZM129.926 162.6C130.313 162.093 130.84 161.667 131.506 161.32C132.173 160.973 132.926 160.8 133.766 160.8C134.726 160.8 135.6 161.04 136.386 161.52C137.186 161.987 137.813 162.647 138.266 163.5C138.72 164.353 138.946 165.333 138.946 166.44C138.946 167.547 138.72 168.54 138.266 169.42C137.813 170.287 137.186 170.967 136.386 171.46C135.6 171.94 134.726 172.18 133.766 172.18C132.926 172.18 132.18 172.013 131.526 171.68C130.873 171.333 130.34 170.907 129.926 170.4V177.24H127.646V160.98H129.926V162.6ZM136.626 166.44C136.626 165.68 136.466 165.027 136.146 164.48C135.84 163.92 135.426 163.5 134.906 163.22C134.4 162.927 133.853 162.78 133.266 162.78C132.693 162.78 132.146 162.927 131.626 163.22C131.12 163.513 130.706 163.94 130.386 164.5C130.08 165.06 129.926 165.72 129.926 166.48C129.926 167.24 130.08 167.907 130.386 168.48C130.706 169.04 131.12 169.467 131.626 169.76C132.146 170.053 132.693 170.2 133.266 170.2C133.853 170.2 134.4 170.053 134.906 169.76C135.426 169.453 135.84 169.013 136.146 168.44C136.466 167.867 136.626 167.2 136.626 166.44Z" fill="black"/>
<path d="M69.7493 0.00222017H5.00391L18.6258 13.5705H69.7493C83.5931 13.5705 96.8695 19.0635 106.658 28.8411C116.447 38.6187 121.947 51.8801 121.947 65.7076C121.947 79.5353 116.447 92.7968 106.658 102.574C96.8695 112.352 83.5931 117.845 69.7493 117.845H37.8353L50.2985 105.414H69.7583C80.2983 105.414 90.4067 101.232 97.8593 93.7875C105.313 86.3432 109.5 76.2465 109.5 65.7187C109.5 55.191 105.313 45.0943 97.8593 37.65C90.4067 30.2057 80.2983 26.0236 69.7583 26.0236H31.0656L44.982 39.9151L62.1467 57.0465H69.7493C72.048 57.0465 74.2524 57.9585 75.8777 59.582C77.5031 61.2054 78.4162 63.4073 78.4162 65.7032C78.4162 67.9991 77.5031 70.201 75.8777 71.8245C74.2524 73.4479 72.048 74.36 69.7493 74.36H62.17L48.2536 88.2659H69.7493C72.7137 88.2659 75.6491 87.6827 78.3878 86.5496C81.1265 85.4165 83.615 83.7557 85.7111 81.662C87.8072 79.5683 89.47 77.0827 90.6044 74.3472C91.7388 71.6116 92.3227 68.6797 92.3227 65.7187C92.3227 62.7578 91.7388 59.8259 90.6044 57.0904C89.47 54.3549 87.8072 51.8693 85.7111 49.7755C83.615 47.6818 81.1265 46.021 78.3878 44.888C75.6491 43.7548 72.7137 43.1717 69.7493 43.1717H67.4664L64.2095 39.9128H64.294L69.7493 39.8984C76.6048 39.8984 83.1796 42.6186 88.0271 47.4605C92.8747 52.3025 95.598 58.8696 95.598 65.7171C95.598 72.5647 92.8747 79.1317 88.0271 83.9736C83.1796 88.8156 76.6048 91.5361 69.7493 91.5361H44.9632L18.6302 117.842L5.01836 131.438H69.7493C87.1993 131.438 103.935 124.514 116.274 112.189C128.613 99.8641 135.544 83.1484 135.544 65.7187C135.544 48.2891 128.613 31.5732 116.274 19.2486C103.935 6.92393 87.1993 0 69.7493 0V0.00222017Z" fill="#FFC900"/>
<path d="M52.225 65.7135L5 18.5444V112.892L18.6207 99.2862L52.225 65.7135Z" fill="#FFE480"/>
</svg>
