<svg width="20" height="25" viewBox="0 0 20 25" fill="none" xmlns="http://www.w3.org/2000/svg">
<path d="M19.9907 14.3733C19.9907 14.4288 19.9874 14.4842 19.9874 14.5367C19.9841 14.5726 19.9841 14.6052 19.9808 14.6414C19.9743 14.7882 19.9613 14.9352 19.9482 15.0823V15.1149C19.9384 15.1805 19.9319 15.249 19.9254 15.3145C19.9221 15.3373 19.9221 15.3569 19.9189 15.3797C19.9058 15.4779 19.8928 15.5757 19.8765 15.6739C19.8767 15.6757 19.8765 15.6775 19.876 15.6792C19.8754 15.6809 19.8744 15.6824 19.8732 15.6837C19.8504 15.8471 19.8207 16.0072 19.7881 16.1673C19.7869 16.1686 19.7859 16.1701 19.7854 16.1718C19.7848 16.1735 19.7846 16.1753 19.7849 16.1771C19.7718 16.2489 19.7552 16.3177 19.7392 16.3894C19.6935 16.5822 19.6443 16.7749 19.5888 16.9644C19.5497 17.0952 19.5105 17.2259 19.4646 17.3567C19.435 17.2677 19.4053 17.1788 19.3733 17.0952C19.3504 17.0332 19.3273 16.9712 19.3045 16.9122V16.9089C19.3011 16.8962 19.2955 16.884 19.2882 16.8731C19.2816 16.86 19.2784 16.847 19.2718 16.8339C19.2392 16.745 19.2034 16.6607 19.1639 16.5756C19.1506 16.5399 19.1354 16.505 19.1182 16.471V16.4677C19.1141 16.4572 19.1086 16.4472 19.1019 16.4381L19.0987 16.4348C19.0978 16.4218 19.0933 16.4094 19.0856 16.3989C19.0497 16.3175 19.0101 16.2358 18.967 16.154C18.9585 16.1335 18.9486 16.1137 18.9374 16.0947C18.93 16.0777 18.9212 16.0613 18.9113 16.0457C18.8917 16.0001 18.8689 15.9568 18.8461 15.915L18.7571 15.7581C18.744 15.732 18.731 15.7059 18.7147 15.6798C18.718 15.6766 18.7147 15.6766 18.7147 15.6766C18.7016 15.6505 18.685 15.6241 18.669 15.598C18.6133 15.4936 18.5504 15.3922 18.4857 15.2908C18.4106 15.1668 18.3323 15.0459 18.2506 14.9281C18.2354 14.9092 18.2212 14.8894 18.2082 14.8688C18.1329 14.7609 18.0546 14.6532 17.976 14.5486C17.9075 14.4569 17.8355 14.3689 17.7637 14.2817C17.7278 14.236 17.6919 14.1904 17.6525 14.1477C17.6297 14.118 17.6036 14.0884 17.5775 14.0587C17.5182 13.9869 17.4533 13.9149 17.388 13.8431C17.377 13.8293 17.365 13.8162 17.3521 13.804C17.2605 13.7026 17.1656 13.6044 17.0677 13.5075L10.0015 6.43615L2.93047 13.5063C2.78991 13.6465 2.65588 13.7904 2.52511 13.9342C2.45009 14.0193 2.37507 14.1073 2.30301 14.1957C2.27692 14.2254 2.25409 14.255 2.22799 14.2847C2.13903 14.3926 2.05482 14.5038 1.97298 14.6147C1.95015 14.6473 1.92731 14.677 1.90448 14.7096C1.86178 14.765 1.82264 14.824 1.78024 14.8828C1.74762 14.9284 1.71826 14.9741 1.68861 15.0201C1.6723 15.041 1.65706 15.0628 1.64294 15.0853C1.55814 15.2161 1.47303 15.3501 1.39475 15.4841C1.35531 15.5494 1.31943 15.6113 1.28355 15.6769C1.27789 15.6899 1.27018 15.7021 1.26072 15.7127C1.22484 15.778 1.19192 15.8468 1.15604 15.912C1.11038 15.9971 1.06708 16.0819 1.02527 16.167C1.01681 16.1813 1.01023 16.1967 1.0057 16.2127C0.99351 16.2349 0.982618 16.2577 0.973085 16.2812C0.965212 16.2936 0.958653 16.3068 0.953514 16.3206C0.940467 16.3467 0.927419 16.3696 0.917634 16.3924C0.887981 16.4544 0.862183 16.5134 0.839054 16.5753C0.812894 16.6272 0.790017 16.6807 0.770556 16.7355C0.76077 16.755 0.754247 16.7714 0.744461 16.7909C0.744461 16.7942 0.7412 16.7974 0.7412 16.8007C0.665881 16.9872 0.597383 17.1702 0.538671 17.3564C0.492709 17.2256 0.453567 17.0949 0.414425 16.9641C0.388331 16.8751 0.36194 16.7862 0.339107 16.6996C0.316274 16.613 0.290179 16.5166 0.270609 16.4217C0.244514 16.3174 0.221582 16.2128 0.201813 16.108C0.178981 16.0036 0.159411 15.899 0.142509 15.791C0.125606 15.6831 0.106628 15.5787 0.0935811 15.4708C0.0805338 15.3818 0.0707481 15.2911 0.0609626 15.2039C0.0577008 15.1713 0.0544387 15.1416 0.0511769 15.109C0.0413915 15.0177 0.0345716 14.9228 0.028048 14.8315V14.8282C0.0182626 14.73 0.0150007 14.6352 0.0117388 14.5373C0.00521522 14.4033 0.00195312 14.2725 0.00195312 14.1385C0.00195312 13.949 0.00847714 13.7563 0.0218209 13.5668C0.154382 11.1153 1.1904 8.7999 2.92988 7.06746L9.99112 0.0100809L10.0009 0L17.0689 7.06805C17.5878 7.58469 18.047 8.15791 18.438 8.77694C18.438 8.78021 18.4413 8.78347 18.4413 8.78673C19.3558 10.2205 19.8848 11.866 19.977 13.5641C19.9939 13.8342 20.0004 14.102 19.9907 14.3733Z" fill="url(#paint0_linear)"/>
<path d="M16.9281 21.3399C15.2926 22.9154 13.1689 23.8863 10.9073 24.0925C8.64578 24.2986 6.38148 23.7277 4.48812 22.4738C4.47507 22.467 4.46529 22.4604 4.45847 22.4572C3.96288 22.1273 3.4981 21.7534 3.06982 21.3399L3.34085 21.0685L10.0003 14.4124L16.6959 21.1077V21.1109L16.7187 21.1341L16.9281 21.3399Z" fill="url(#paint1_linear)"/>
<path d="M19.4635 17.3565C19.1329 18.3396 18.65 19.2646 18.0325 20.0979C17.9732 20.1765 17.9139 20.2548 17.8495 20.3333C17.7902 20.4084 17.7285 20.4837 17.6663 20.5587C17.5391 20.707 17.4116 20.8529 17.2743 20.9967C17.209 21.0684 17.1402 21.1369 17.0685 21.209C17.0259 21.2559 16.98 21.2996 16.9312 21.3398H16.9279L16.7203 21.134L16.6975 21.1108V21.1076L10.0019 14.4123L3.34098 21.0676L3.06995 21.3389C3.02082 21.2978 2.97388 21.2542 2.9294 21.2081C1.84386 20.1271 1.02497 18.808 0.537598 17.3556C0.596903 17.1694 0.664808 16.9864 0.740127 16.7999C0.740127 16.7967 0.743388 16.7934 0.743388 16.7901C0.753174 16.7706 0.7597 16.7542 0.769486 16.7347C0.788947 16.6799 0.811824 16.6264 0.837981 16.5746C0.890369 16.4536 0.945917 16.3327 1.00463 16.2119C1.05059 16.1105 1.10278 16.0094 1.15497 15.9112C1.23029 15.7674 1.30857 15.6236 1.39368 15.4833C1.47196 15.3493 1.55706 15.2165 1.64187 15.0845C1.64839 15.078 1.65166 15.0682 1.65818 15.0617C1.73676 14.9407 1.82157 14.8197 1.90993 14.699C1.92951 14.6694 1.94908 14.6433 1.97191 14.6139C2.06087 14.4953 2.1516 14.3788 2.24323 14.2643L2.24976 14.2578C2.33772 14.1498 2.42915 14.042 2.52404 13.9343C2.65481 13.7904 2.78884 13.6466 2.9294 13.5064L10.0004 6.43506L17.0685 13.5061C17.9046 14.3413 18.5862 15.3182 19.0813 16.3913C19.0911 16.4049 19.0978 16.4205 19.1009 16.437C19.1075 16.4461 19.113 16.4561 19.1172 16.4666V16.4699C19.1343 16.5039 19.1496 16.5389 19.1628 16.5746C19.2023 16.6597 19.2382 16.7445 19.2708 16.8328C19.2836 16.8569 19.2945 16.882 19.3034 16.9079V16.9111C19.3262 16.9704 19.3494 17.0321 19.3722 17.0941C19.4048 17.1801 19.4342 17.2681 19.4635 17.3565Z" fill="url(#paint2_linear)"/>
<g style="mix-blend-mode:multiply" opacity="0.06">
<g style="mix-blend-mode:multiply" opacity="0.06">
<path d="M10.0008 14.4128L3.06946 21.3412C3.02172 21.3003 2.97368 21.2523 2.92921 21.2081C2.58176 20.8622 2.26071 20.4908 1.96875 20.097L10.0008 14.4128Z" fill="black"/>
</g>
</g>
<g style="mix-blend-mode:multiply" opacity="0.06">
<g style="mix-blend-mode:multiply" opacity="0.06">
<path d="M10.001 6.43604L2.92998 13.5062C2.78943 13.6464 2.6554 13.7902 2.52463 13.9341C2.4496 14.023 2.37458 14.1072 2.30253 14.1956C2.27643 14.2252 2.2536 14.2549 2.22751 14.2846C2.13855 14.3925 2.05433 14.5037 1.97249 14.6146C1.94966 14.6472 1.92683 14.6769 1.90399 14.7095C1.86129 14.7649 1.81889 14.8239 1.77975 14.8826C1.74713 14.9283 1.71777 14.974 1.68812 15.0199C1.67181 15.0409 1.65657 15.0627 1.64245 15.0852C1.55765 15.2159 1.47254 15.35 1.39426 15.484C1.35482 15.546 1.31894 15.6112 1.28306 15.6768C1.2774 15.6898 1.26969 15.702 1.26023 15.7126C1.22435 15.7779 1.18847 15.8467 1.15555 15.9119C1.10989 15.997 1.0666 16.0818 1.02479 16.1669C1.01632 16.1812 1.00974 16.1966 1.00521 16.2126C0.993021 16.2348 0.98213 16.2576 0.972597 16.2811C0.964724 16.2935 0.958165 16.3067 0.953026 16.3205C0.913884 16.4053 0.874742 16.4904 0.838566 16.5752C0.812406 16.6271 0.789529 16.6806 0.770068 16.7354C0.684964 16.9411 0.60668 17.1469 0.538182 17.3563C0.49222 17.2255 0.453079 17.0948 0.413937 16.964C0.387842 16.875 0.361451 16.7861 0.338619 16.6995C0.315786 16.6129 0.289691 16.5165 0.27012 16.4216C0.244026 16.3173 0.221093 16.2127 0.201325 16.1079C0.178492 16.0035 0.158922 15.8989 0.14202 15.7909C0.125118 15.683 0.10614 15.5786 0.0930928 15.4707C0.0800455 15.3817 0.0702598 15.291 0.0604743 15.2038C0.0572125 15.1712 0.0539504 15.1415 0.0506886 15.1089C0.0409032 15.0176 0.0340833 14.9227 0.0275597 14.8313V14.8281C0.0177743 14.7299 0.0145124 14.635 0.0112506 14.5372C0.00472694 14.4032 0.00146484 14.2724 0.00146484 14.1384C0.00146484 13.9489 0.00798886 13.7561 0.0213326 13.5667L0.128972 13.4884L8.58242 7.44957L10.001 6.43604Z" fill="black"/>
</g>
</g>
<g style="mix-blend-mode:multiply" opacity="0.06">
<g style="mix-blend-mode:multiply" opacity="0.06">
<path d="M18.033 20.098C17.9737 20.1766 17.9144 20.2549 17.8501 20.3334C17.7908 20.4085 17.7291 20.4838 17.6668 20.5588C17.5396 20.7071 17.4121 20.853 17.2748 20.9968C17.2096 21.0685 17.1408 21.1403 17.0723 21.2091H17.069C17.0265 21.256 16.9806 21.2997 16.9317 21.3399H16.9285L16.6999 21.1077C16.6999 21.1109 16.6966 21.1077 16.6966 21.1077C16.6922 21.1004 16.6867 21.0938 16.6803 21.0881L10.001 14.4124L11.3505 15.3666L17.7682 19.9112L18.033 20.098Z" fill="black"/>
</g>
</g>
<g style="mix-blend-mode:multiply" opacity="0.06">
<g style="mix-blend-mode:multiply" opacity="0.06">
<path d="M19.7372 16.3902C19.6924 16.5826 19.6444 16.7757 19.5889 16.9643C19.5498 17.095 19.5106 17.2258 19.4647 17.3566C19.435 17.2676 19.4054 17.1787 19.3734 17.095C19.3505 17.0331 19.3274 16.9711 19.3013 16.9121C19.2929 16.8855 19.283 16.8593 19.2716 16.8338C19.239 16.7448 19.2031 16.6606 19.1637 16.5755C19.1504 16.5398 19.1352 16.5049 19.118 16.4709C19.1146 16.4591 19.1091 16.4481 19.1017 16.4382C19.0986 16.4218 19.0919 16.4062 19.0822 16.3926C18.5863 15.3207 17.9061 14.3441 17.0726 13.5073H17.0693L10.001 6.43604L11.4021 7.43919L19.7574 13.4059L19.9762 13.5628L19.9795 13.5661C19.9925 13.7555 19.999 13.9483 19.999 14.1378C19.999 14.2163 19.9925 14.2949 19.9907 14.3732C19.9907 14.4281 19.9869 14.4826 19.9848 14.5375C19.9771 14.7258 19.9646 14.9135 19.9462 15.1009C19.9373 15.194 19.9276 15.2868 19.9166 15.3796C19.9041 15.4778 19.8917 15.5756 19.8766 15.6732C19.8505 15.841 19.8199 16.0084 19.7849 16.1752C19.7704 16.2473 19.7538 16.3187 19.7372 16.3902Z" fill="black"/>
</g>
</g>
<g style="mix-blend-mode:multiply" opacity="0.14">
<g style="mix-blend-mode:multiply" opacity="0.14">
<path d="M16.721 21.1326L10.001 14.4127L3.34277 21.0677C3.85221 20.466 4.38537 19.892 4.90844 19.304C5.43804 18.7263 5.9712 18.1475 6.51148 17.5814C7.0479 17.007 7.59825 16.4466 8.14238 15.8826L9.79672 14.2078L10.0016 14.0002L10.2068 14.2078L11.8748 15.898C12.4251 16.4688 12.9788 17.0328 13.5223 17.6105C14.0658 18.1881 14.6058 18.7669 15.1425 19.3505C15.6647 19.9433 16.2059 20.5242 16.721 21.1326Z" fill="black"/>
</g>
</g>
<g style="mix-blend-mode:multiply" opacity="0.14">
<g style="mix-blend-mode:multiply" opacity="0.14">
<path d="M19.1164 16.467C18.619 15.3647 17.9257 14.3617 17.0703 13.5068L10.0005 6.43486L2.92856 13.5062C1.98843 14.4443 1.24583 15.5612 0.744629 16.7912C1.13466 15.6831 1.72552 14.6565 2.48762 13.7627C2.67918 13.537 2.88764 13.3253 3.08603 13.1133L3.68413 12.4775L4.89752 11.2161C6.51093 9.53803 8.15133 7.88014 9.79558 6.22937L10.0005 6.02417L10.2057 6.22937L12.6016 8.64937C13.3913 9.46274 14.191 10.2696 14.9739 11.0933L16.1531 12.3204L16.7376 12.9389C16.9289 13.1465 17.1305 13.3526 17.3221 13.5616C18.0892 14.4149 18.6969 15.399 19.1164 16.467Z" fill="black"/>
</g>
</g>
<g style="mix-blend-mode:screen" opacity="0.3">
<g style="mix-blend-mode:screen" opacity="0.3">
<path d="M16.7209 21.1326C16.1125 20.6163 15.5316 20.0764 14.9418 19.5536C14.3572 19.0169 13.7773 18.4768 13.202 17.9333C12.6241 17.3898 12.0604 16.8362 11.4896 16.2858L10.0025 14.8195L8.53289 16.2725C7.96534 16.816 7.40846 17.3661 6.83408 17.8995C6.26327 18.4428 5.68889 18.9727 5.10799 19.5058C4.51997 20.0254 3.94589 20.5585 3.34424 21.068L10.0025 14.413L16.7209 21.1326Z" fill="white"/>
</g>
</g>
<g style="mix-blend-mode:screen" opacity="0.3">
<g style="mix-blend-mode:screen" opacity="0.3">
<path d="M19.1166 16.4669C18.6033 15.4619 17.9291 14.5475 17.1207 13.7599C16.3002 12.9804 15.4696 12.2011 14.6563 11.4117C13.8361 10.6253 13.0292 9.82916 12.2158 9.03624L10.0008 6.84193C8.41925 8.42124 6.82532 9.9867 5.21894 11.5383L3.95899 12.7514C3.53851 13.1515 3.10113 13.5479 2.70111 13.9545C1.8948 14.7837 1.23389 15.7429 0.746094 16.7916C1.24687 15.5616 1.98907 14.4445 2.92884 13.5061L10.0008 6.4342L17.0694 13.5061C17.9253 14.3611 18.6189 15.3643 19.1166 16.4669Z" fill="white"/>
</g>
</g>
<g style="mix-blend-mode:screen" opacity="0.5">
<g style="mix-blend-mode:screen" opacity="0.5">
<path d="M9.99092 0.00976562C9.90611 0.114144 9.18703 0.97674 8.08276 2.17946C7.49771 2.82649 6.80502 3.56484 6.05362 4.35241C5.67436 4.74116 5.29213 5.14948 4.89034 5.55484C4.48854 5.96019 4.07992 6.37504 3.67457 6.78662C3.47204 6.98915 3.2532 7.19523 3.06372 7.39124C2.85468 7.59881 2.67825 7.80282 2.50033 8.01217C2.15125 8.42689 1.83658 8.8694 1.55944 9.33528C1.06304 10.1651 0.682614 11.0591 0.42878 11.9922C0.310169 12.4038 0.24256 12.7928 0.177028 13.1356C0.157259 13.26 0.14095 13.3777 0.1281 13.4888C0.102006 13.6914 0.0822367 13.8744 0.0687941 14.0376C0.0492232 14.2826 0.0459611 14.4886 0.0361757 14.6224C0.0296522 14.741 0.0260949 14.8122 0.0260949 14.83C0.0163094 14.7318 0.0130475 14.6369 0.00978573 14.5391C0.0032621 14.405 0 14.2743 0 14.1402C0 13.9507 0.00652404 13.758 0.0198678 13.5685C0.152429 11.1171 1.18844 8.80168 2.92792 7.06921L9.99092 0.00976562Z" fill="white"/>
</g>
</g>
<g style="mix-blend-mode:multiply" opacity="0.2">
<g style="mix-blend-mode:multiply" opacity="0.2">
<path d="M19.7364 16.3902C19.6916 16.5827 19.6436 16.7757 19.5881 16.9643C19.549 17.0951 19.5098 17.2258 19.4639 17.3566C19.1333 18.3396 18.6504 19.2647 18.0328 20.098C17.9735 20.1766 17.9142 20.2549 17.8499 20.3334C17.7905 20.4085 17.7289 20.4838 17.6666 20.5588C17.5394 20.7071 17.4119 20.853 17.2746 20.9968C17.2094 21.0685 17.1406 21.1403 17.0721 21.2091H17.0688C17.0263 21.256 16.9804 21.2997 16.9315 21.3399H16.9282C15.2928 22.9154 13.1691 23.8864 10.9075 24.0925C8.64594 24.2986 6.38167 23.7277 4.48828 22.4738C4.53098 22.4966 4.59948 22.5358 4.68429 22.5847C4.86072 22.6828 5.12226 22.8133 5.45882 22.9737C6.38772 23.3974 7.37451 23.6804 8.38674 23.8135C9.80216 24.0037 11.2417 23.8935 12.6117 23.49C13.3769 23.2618 14.1128 22.9449 14.8042 22.5455C15.4891 22.1448 16.1233 21.6631 16.6931 21.1109C16.6931 21.1109 16.6964 21.1142 16.6964 21.1109V21.1077C16.6964 21.1077 16.6996 21.1109 16.6996 21.1077C16.7225 21.0881 16.742 21.0653 16.7649 21.0457C17.1289 20.6951 17.4644 20.3159 17.768 19.9118C17.9564 19.6616 18.1319 19.4021 18.2941 19.1343C18.7117 18.4526 19.0453 17.7229 19.2874 16.961C19.2933 16.9452 19.2977 16.9288 19.3005 16.9121H19.3037V16.9088C19.5194 16.211 19.6618 15.4926 19.7287 14.7652C19.7691 14.3133 19.779 13.8592 19.7583 13.4059C19.7485 13.1806 19.7287 12.9582 19.7061 12.7459C19.645 12.1745 19.5368 11.6092 19.3826 11.0557C19.2617 10.6271 19.1131 10.2068 18.9378 9.79749C18.781 9.46093 18.6632 9.19316 18.5654 9.01999C18.5061 8.90879 18.464 8.82725 18.4411 8.78455C19.3557 10.2183 19.8847 11.8638 19.9769 13.5619L19.9801 13.5652C19.9932 13.7547 19.9997 13.9474 19.9997 14.1369C19.9997 14.2155 19.9932 14.294 19.9914 14.3723C19.9914 14.4272 19.9875 14.4817 19.9855 14.5366C19.9777 14.7249 19.9653 14.9126 19.9469 15.1C19.938 15.1931 19.9282 15.2859 19.9173 15.3787C19.9048 15.4769 19.8923 15.5748 19.8772 15.6723C19.8511 15.8401 19.8206 16.0075 19.7856 16.1743C19.7696 16.2473 19.753 16.3187 19.7364 16.3902Z" fill="black"/>
</g>
</g>
<defs>
<linearGradient id="paint0_linear" x1="9.9986" y1="0.295064" x2="9.9986" y2="13.1737" gradientUnits="userSpaceOnUse">
<stop stop-color="#FC7300"/>
<stop offset="1" stop-color="#F8007A"/>
</linearGradient>
<linearGradient id="paint1_linear" x1="9.99895" y1="14.772" x2="9.99895" y2="23.7643" gradientUnits="userSpaceOnUse">
<stop stop-color="#FC7300"/>
<stop offset="1" stop-color="#F8007A"/>
</linearGradient>
<linearGradient id="paint2_linear" x1="10.0006" y1="6.91202" x2="10.0006" y2="17.8073" gradientUnits="userSpaceOnUse">
<stop stop-color="#FC7300"/>
<stop offset="1" stop-color="#F8007A"/>
</linearGradient>
</defs>
</svg>
