<svg width="24" height="24" viewBox="0 0 24 24" fill="none" xmlns="http://www.w3.org/2000/svg">
<path d="M21.993 7.95003C21.99 7.87803 21.983 7.80503 21.964 7.73603C21.957 7.71103 21.943 7.68703 21.934 7.66203C21.913 7.60503 21.894 7.54903 21.864 7.49703C21.848 7.47003 21.826 7.44803 21.807 7.42203C21.775 7.37703 21.744 7.33103 21.705 7.29203C21.682 7.27003 21.652 7.25203 21.627 7.23103C21.588 7.19903 21.552 7.16403 21.507 7.13703C21.503 7.13403 21.498 7.13403 21.493 7.13103C21.49 7.12903 21.488 7.12703 21.485 7.12503L12.506 2.13503C12.205 1.96703 11.839 1.96803 11.536 2.13403L2.515 7.12403C2.512 7.12703 2.509 7.13103 2.504 7.13403C2.501 7.13503 2.497 7.13603 2.494 7.13803C2.459 7.15803 2.433 7.18703 2.4 7.21103C2.364 7.23803 2.326 7.26203 2.294 7.29303C2.264 7.32403 2.241 7.36003 2.215 7.39503C2.188 7.43003 2.158 7.46103 2.136 7.49903C2.11 7.54203 2.096 7.59103 2.077 7.63803C2.063 7.67103 2.045 7.70203 2.036 7.73803C2.017 7.80503 2.011 7.87703 2.007 7.94803C2.006 7.96503 2 7.98003 2 7.99803V7.99903V8.00003V16C2 16.363 2.197 16.698 2.515 16.874L11.493 21.861L11.494 21.862C11.495 21.862 11.495 21.862 11.496 21.863L11.516 21.874C11.559 21.898 11.606 21.911 11.651 21.928C11.683 21.941 11.714 21.958 11.748 21.967C11.829 21.988 11.915 22 12 22C12.085 22 12.171 21.988 12.254 21.967C12.287 21.958 12.318 21.941 12.351 21.928C12.396 21.911 12.443 21.899 12.486 21.874L12.506 21.863C12.507 21.862 12.507 21.862 12.508 21.862L12.509 21.861L21.487 16.874C21.803 16.698 22 16.363 22 16V8.00003V7.99903V7.99803C22 7.98103 21.994 7.96703 21.993 7.95003ZM11.972 11.872L5.058 8.00503L7.82 6.47703L14.654 10.382L11.972 11.872ZM12.02 4.15303L18.941 8.00003L16.697 9.24703L9.867 5.34403L12.02 4.15303ZM4 9.70503L11 13.621V19.301L4 15.411V9.70503ZM13 19.301L13.002 13.622L16 11.944V15L18 14V10.825L20 9.70603V15.411L13 19.301Z" fill="white"/>
</svg>
