<svg width="24" height="24" viewBox="0 0 24 24" fill="none" xmlns="http://www.w3.org/2000/svg">
<path fill-rule="evenodd" clip-rule="evenodd" d="M10.1088 5.02867C9.69261 5.76858 9.57229 6.76452 9.57229 7.67703C9.57229 8.20702 9.14265 8.63667 8.61265 8.63667C8.08266 8.63667 7.65301 8.20702 7.65301 7.67703C7.65301 6.67026 7.77261 5.2671 8.43601 4.08773C8.77677 3.48192 9.26576 2.92693 9.95318 2.52843C10.6399 2.13036 11.4714 1.91919 12.4512 1.91919C13.431 1.91919 14.2626 2.13036 14.9492 2.52843C15.6367 2.92693 16.1257 3.48192 16.4664 4.08772C17.1298 5.26709 17.2494 6.67024 17.2495 7.67701C17.2495 8.207 16.8198 8.63666 16.2898 8.63667C15.7598 8.63668 15.3302 8.20705 15.3302 7.67705C15.3302 6.76454 15.2098 5.76859 14.7936 5.02868C14.5946 4.67484 14.3339 4.39015 13.9867 4.18887C13.6387 3.98717 13.1508 3.83847 12.4512 3.83847C11.7516 3.83847 11.2637 3.98717 10.9158 4.18887C10.5686 4.39014 10.3078 4.67484 10.1088 5.02867Z" fill="#FFC900"/>
<path d="M14.3706 13.4349C14.3706 14.4949 13.5113 15.3541 12.4513 15.3541C11.3913 15.3541 10.532 14.4949 10.532 13.4349C10.532 12.3749 11.3913 11.5156 12.4513 11.5156C13.5113 11.5156 14.3706 12.3749 14.3706 13.4349Z" fill="#FFC900"/>
<path fill-rule="evenodd" clip-rule="evenodd" d="M12.4512 12.4752C12.9812 12.4752 13.4109 12.9049 13.4109 13.4349V16.3138C13.4109 16.8438 12.9812 17.2734 12.4512 17.2734C11.9212 17.2734 11.4916 16.8438 11.4916 16.3138V13.4349C11.4916 12.9049 11.9212 12.4752 12.4512 12.4752Z" fill="#FFC900"/>
<path fill-rule="evenodd" clip-rule="evenodd" d="M3.81445 10.5559C3.81445 8.96597 5.10339 7.67703 6.69337 7.67703H18.2091C19.799 7.67703 21.088 8.96597 21.088 10.5559V18.2331C21.088 19.8231 19.799 21.112 18.2091 21.112H6.69337C5.10339 21.112 3.81445 19.8231 3.81445 18.2331V10.5559ZM6.69337 9.59631C6.16338 9.59631 5.73373 10.026 5.73373 10.5559V18.2331C5.73373 18.7631 6.16338 19.1927 6.69337 19.1927H18.2091C18.739 19.1927 19.1687 18.7631 19.1687 18.2331V10.5559C19.1687 10.026 18.739 9.59631 18.2091 9.59631H6.69337Z" fill="#FFC900"/>
</svg>
