<svg width="16" height="18" viewBox="0 0 16 18" fill="none" xmlns="http://www.w3.org/2000/svg">
<path d="M12.982 3.61145C12.3768 3.61206 11.7966 3.82583 11.3687 4.20587C10.9408 4.58591 10.7001 5.10118 10.6995 5.6386V10.6878C10.7059 11.0492 10.6314 11.4079 10.4801 11.7434C10.3288 12.0789 10.104 12.3842 9.81851 12.6417C9.53301 12.8993 9.19272 13.1038 8.8174 13.2434C8.44208 13.383 8.03922 13.4549 7.63231 13.4549C7.2254 13.4549 6.82255 13.383 6.44723 13.2434C6.07191 13.1038 5.73161 12.8993 5.44616 12.6417C5.16071 12.3842 4.93581 12.0789 4.78455 11.7434C4.6333 11.4079 4.55871 11.0492 4.56513 10.6878V5.6386C4.56513 5.10103 4.32465 4.58546 3.89658 4.20534C3.46852 3.82521 2.88794 3.61166 2.28257 3.61166C1.67719 3.61166 1.09661 3.82521 0.668546 4.20534C0.240482 4.58546 0 5.10103 0 5.6386V11.2224C-2.98705e-08 12.1125 0.197415 12.9938 0.580974 13.8161C0.964535 14.6384 1.52673 15.3855 2.23545 16.015C2.94418 16.6443 3.78556 17.1435 4.71155 17.4841C5.63755 17.8247 6.63002 18 7.63231 18C8.63461 18 9.62709 17.8247 10.5531 17.4841C11.4791 17.1435 12.3204 16.6443 13.0291 16.015C13.7379 15.3855 14.3001 14.6384 14.6836 13.8161C15.0672 12.9938 15.2646 12.1125 15.2646 11.2224V5.6386C15.264 5.10117 15.0233 4.58591 14.5954 4.20587C14.1675 3.82583 13.5872 3.61206 12.982 3.61145ZM14.266 11.222C14.266 12.7844 13.5671 14.2827 12.323 15.3874C11.079 16.4921 9.39167 17.1128 7.63231 17.1128C5.87295 17.1128 4.18565 16.4921 2.9416 15.3874C1.69754 14.2827 0.998631 12.7844 0.998631 11.222V5.6386C1.00156 5.33792 1.13811 5.05044 1.37858 4.83873C1.61904 4.62703 1.94395 4.50825 2.28257 4.50825C2.62118 4.50825 2.94609 4.62703 3.18655 4.83873C3.42702 5.05044 3.56358 5.33792 3.5665 5.6386V10.6878C3.5665 11.6454 3.99486 12.5637 4.75735 13.2409C5.51983 13.918 6.55399 14.2983 7.63231 14.2983C8.71064 14.2983 9.74483 13.918 10.5073 13.2409C11.2697 12.5637 11.6981 11.6454 11.6981 10.6878V5.6386C11.6981 5.33622 11.8334 5.04622 12.0742 4.8324C12.315 4.61858 12.6415 4.49846 12.982 4.49846C13.3226 4.49846 13.6491 4.61858 13.89 4.8324C14.1307 5.04622 14.266 5.33622 14.266 5.6386V11.222Z" fill="url(#paint0_linear)"/>
<path d="M7.13301 4.64487V10.4904C7.13301 10.608 7.18562 10.7208 7.27926 10.804C7.37289 10.8871 7.4999 10.9338 7.63233 10.9338C7.76475 10.9338 7.89175 10.8871 7.98539 10.804C8.07904 10.7208 8.13164 10.608 8.13164 10.4904V4.64487C8.77632 4.53457 9.35155 4.21485 9.74503 3.74815C10.1385 3.28144 10.3219 2.70126 10.2595 2.12089C10.1971 1.54052 9.89344 1.00165 9.40762 0.609473C8.92181 0.217302 8.28885 0 7.63233 0C6.97579 0 6.34283 0.217302 5.85704 0.609473C5.37124 1.00165 5.0675 1.54052 5.00511 2.12089C4.94272 2.70126 5.12617 3.28144 5.51964 3.74815C5.9131 4.21485 6.48834 4.53457 7.13301 4.64487ZM7.63233 0.887748C7.95681 0.887748 8.27401 0.973194 8.54381 1.13328C8.81362 1.29337 9.0239 1.52091 9.14807 1.78713C9.27224 2.05334 9.30473 2.34628 9.24142 2.6289C9.1781 2.91151 9.02184 3.1711 8.79238 3.37485C8.56293 3.57859 8.27059 3.71734 7.95234 3.77354C7.63408 3.82975 7.3042 3.80088 7.00442 3.6906C6.70464 3.58032 6.44842 3.39358 6.26815 3.15398C6.08789 2.91438 5.99169 2.63271 5.9917 2.34455C5.99221 1.95831 6.16523 1.58801 6.4728 1.3149C6.78037 1.0418 7.19737 0.888172 7.63233 0.887748Z" fill="url(#paint1_linear)"/>
<defs>
<linearGradient id="paint0_linear" x1="0" y1="10.8058" x2="15.2646" y2="10.8058" gradientUnits="userSpaceOnUse">
<stop stop-color="white"/>
<stop offset="1" stop-color="white"/>
</linearGradient>
<linearGradient id="paint1_linear" x1="4.99316" y1="5.46691" x2="10.2715" y2="5.46691" gradientUnits="userSpaceOnUse">
<stop stop-color="white"/>
<stop offset="1" stop-color="white"/>
</linearGradient>
</defs>
</svg>
