<svg width="24" height="24" viewBox="0 0 24 24" fill="none" xmlns="http://www.w3.org/2000/svg">
<path d="M4.0031 21C4.0841 21 4.1651 20.99 4.2451 20.97L8.2451 19.97C8.4211 19.926 8.5821 19.835 8.7101 19.707L21.0031 7.41398C21.3811 7.03598 21.5891 6.53398 21.5891 5.99998C21.5891 5.46598 21.3811 4.96398 21.0031 4.58598L19.4171 2.99998C18.6611 2.24398 17.3451 2.24398 16.5891 2.99998L4.2961 15.293C4.1681 15.421 4.0771 15.582 4.0331 15.757L3.0331 19.757C2.9471 20.098 3.0481 20.458 3.2961 20.707C3.4851 20.897 3.7411 21 4.0031 21ZM18.0031 4.41398L19.5891 5.99998L18.0031 7.58598L16.4171 5.99998L18.0031 4.41398ZM5.9061 16.511L15.0031 7.41398L16.5891 8.99998L7.4911 18.097L5.3771 18.625L5.9061 16.511Z" fill="black"/>
</svg>
