<svg width="29" height="28" viewBox="0 0 29 28" fill="none" xmlns="http://www.w3.org/2000/svg">
<path d="M22.4509 12.8616H6.26206C5.95538 12.8616 5.66126 12.9834 5.4444 13.2003C5.22754 13.4171 5.10571 13.7112 5.10571 14.0179C5.10571 14.3246 5.22754 14.6187 5.4444 14.8356C5.66126 15.0524 5.95538 15.1743 6.26206 15.1743H22.4509C22.7576 15.1743 23.0517 15.0524 23.2686 14.8356C23.4854 14.6187 23.6073 14.3246 23.6073 14.0179C23.6073 13.7112 23.4854 13.4171 23.2686 13.2003C23.0517 12.9834 22.7576 12.8616 22.4509 12.8616Z" fill="black"/>
<path d="M15.5129 22.1123L15.5129 5.92344C15.5129 5.61675 15.3911 5.32263 15.1743 5.10578C14.9574 4.88892 14.6633 4.76709 14.3566 4.76709C14.0499 4.76709 13.7558 4.88892 13.5389 5.10578C13.3221 5.32263 13.2002 5.61675 13.2002 5.92344L13.2002 22.1123C13.2002 22.419 13.3221 22.7131 13.5389 22.93C13.7558 23.1468 14.0499 23.2686 14.3566 23.2686C14.6633 23.2686 14.9574 23.1468 15.1743 22.93C15.3911 22.7131 15.5129 22.419 15.5129 22.1123Z" fill="black"/>
</svg>
