<svg width="39" height="39" viewBox="0 0 39 39" fill="none" xmlns="http://www.w3.org/2000/svg">
<path d="M34.255 11.375C33.9742 10.8885 33.5721 10.4831 33.088 10.1983C32.6038 9.91347 32.0541 9.75902 31.4925 9.74998H10.6925L9.75 6.07748C9.65477 5.72296 9.44232 5.41114 9.14725 5.19278C8.85218 4.97443 8.49186 4.86241 8.125 4.87498H4.875C4.44402 4.87498 4.0307 5.04618 3.72595 5.35093C3.4212 5.65567 3.25 6.069 3.25 6.49998C3.25 6.93095 3.4212 7.34428 3.72595 7.64902C4.0307 7.95377 4.44402 8.12498 4.875 8.12498H6.89L11.375 24.7975C11.4702 25.152 11.6827 25.4638 11.9777 25.6822C12.2728 25.9005 12.6331 26.0125 13 26H27.625C27.9251 25.9991 28.2191 25.9151 28.4743 25.7573C28.7296 25.5996 28.9362 25.3742 29.0712 25.1062L34.4013 14.4462C34.6323 13.962 34.7398 13.4281 34.7143 12.8922C34.6888 12.3563 34.531 11.8351 34.255 11.375ZM26.6175 22.75H14.235L11.5863 13H31.4925L26.6175 22.75Z" fill="#444444"/>
<path d="M12.1875 34.125C13.5337 34.125 14.625 33.0337 14.625 31.6875C14.625 30.3413 13.5337 29.25 12.1875 29.25C10.8413 29.25 9.75 30.3413 9.75 31.6875C9.75 33.0337 10.8413 34.125 12.1875 34.125Z" fill="#444444"/>
<path d="M28.4375 34.125C29.7837 34.125 30.875 33.0337 30.875 31.6875C30.875 30.3413 29.7837 29.25 28.4375 29.25C27.0913 29.25 26 30.3413 26 31.6875C26 33.0337 27.0913 34.125 28.4375 34.125Z" fill="#444444"/>
</svg>
