<svg width="20" height="20" viewBox="0 0 20 20" fill="none" xmlns="http://www.w3.org/2000/svg">
<path d="M17.8283 8.52929C17.7788 8.3858 17.6887 8.25976 17.5689 8.16646C17.4492 8.07316 17.3049 8.01662 17.1537 8.00368L12.6898 7.35254L10.6894 3.29667C10.6251 3.16403 10.5248 3.05217 10.4 2.97391C10.2751 2.89564 10.1307 2.85413 9.98332 2.85413C9.83595 2.85413 9.69155 2.89564 9.56668 2.97391C9.44181 3.05217 9.34151 3.16403 9.27727 3.29667L7.27679 7.34469L2.81298 8.00368C2.66779 8.02431 2.53129 8.08523 2.41897 8.17953C2.30665 8.27382 2.22301 8.39771 2.17754 8.53714C2.13592 8.67338 2.13218 8.81839 2.16673 8.9566C2.20129 9.09481 2.27282 9.22101 2.37366 9.32164L5.61365 12.4596L4.82915 16.9156C4.79748 17.0634 4.80919 17.2172 4.86287 17.3586C4.91656 17.4999 5.00993 17.6227 5.13176 17.7122C5.25358 17.8017 5.39868 17.8541 5.54958 17.8631C5.70048 17.8721 5.85077 17.8373 5.98237 17.7629L9.98332 15.6682L13.9843 17.7629C14.0944 17.825 14.2187 17.8574 14.3451 17.857C14.5113 17.8576 14.6734 17.8054 14.808 17.708C14.9297 17.6208 15.0239 17.5006 15.0795 17.3616C15.1351 17.2225 15.1498 17.0705 15.1218 16.9235L14.3373 12.4675L17.5773 9.32948C17.6906 9.23352 17.7743 9.10739 17.8187 8.96575C17.8631 8.8241 17.8665 8.67276 17.8283 8.52929ZM13.0036 11.6673C12.9128 11.7555 12.8447 11.8643 12.8051 11.9845C12.7655 12.1048 12.7556 12.2328 12.7761 12.3577L13.341 15.6526L10.3913 14.0836C10.2766 14.0268 10.1504 13.9973 10.0225 13.9973C9.89465 13.9973 9.76847 14.0268 9.65383 14.0836L6.70411 15.6526L7.26895 12.3577C7.28953 12.2328 7.27959 12.1048 7.23998 11.9845C7.20036 11.8643 7.13224 11.7555 7.04144 11.6673L4.68794 9.31379L7.99069 8.83525C8.11778 8.81757 8.23859 8.76899 8.34254 8.69376C8.44648 8.61854 8.53039 8.51897 8.58691 8.40377L9.98332 5.41482L11.4582 8.41162C11.5147 8.52681 11.5986 8.62638 11.7026 8.70161C11.8065 8.77683 11.9273 8.82541 12.0544 8.84309L15.3572 9.32164L13.0036 11.6673Z" fill="#FFC900"/>
<path d="M13.0036 11.6673C12.9128 11.7555 12.8447 11.8643 12.8051 11.9845C12.7655 12.1048 12.7556 12.2328 12.7761 12.3577L13.341 15.6526L10.3913 14.0836C10.2766 14.0268 10.1504 13.9973 10.0225 13.9973C9.89465 13.9973 9.76847 14.0268 9.65383 14.0836L6.70411 15.6526L7.26895 12.3577C7.28953 12.2328 7.27959 12.1048 7.23998 11.9845C7.20036 11.8643 7.13224 11.7555 7.04144 11.6673L4.68794 9.31379L7.99069 8.83525C8.11778 8.81757 8.23859 8.76899 8.34254 8.69376C8.44648 8.61854 8.53039 8.51897 8.58691 8.40377L9.98332 5.41482L11.4582 8.41162C11.5147 8.52681 11.5986 8.62638 11.7026 8.70161C11.8065 8.77683 11.9273 8.82541 12.0544 8.84309L15.3572 9.32164L13.0036 11.6673Z" fill="#FFC900"/>
</svg>
