<svg width="20" height="20" viewBox="0 0 20 20" fill="none" xmlns="http://www.w3.org/2000/svg">
<path d="M17.717 8.49545C17.6665 8.34932 17.5747 8.22097 17.4528 8.12596C17.3308 8.03095 17.1839 7.97336 17.0299 7.96018L12.4841 7.29709L10.4469 3.16674C10.3815 3.03166 10.2793 2.91775 10.1522 2.83804C10.025 2.75834 9.87796 2.71606 9.72788 2.71606C9.5778 2.71606 9.43076 2.75834 9.30359 2.83804C9.17643 2.91775 9.07429 3.03166 9.00887 3.16674L6.97165 7.2891L2.42587 7.96018C2.27801 7.9812 2.139 8.04324 2.02462 8.13926C1.91023 8.23529 1.82506 8.36145 1.77875 8.50344C1.73637 8.64219 1.73256 8.78986 1.76775 8.93061C1.80294 9.07136 1.87579 9.19987 1.97848 9.30235L5.27797 12.498L4.47906 17.0358C4.44681 17.1863 4.45873 17.343 4.5134 17.4869C4.56807 17.6308 4.66316 17.7558 4.78722 17.847C4.91129 17.9381 5.05904 17.9915 5.21272 18.0007C5.3664 18.0098 5.51945 17.9744 5.65346 17.8986L9.72788 15.7655L13.8023 17.8986C13.9144 17.9619 14.0411 17.9949 14.1698 17.9945C14.339 17.9951 14.5041 17.9419 14.6412 17.8427C14.7651 17.7539 14.8611 17.6315 14.9177 17.4899C14.9743 17.3484 14.9892 17.1935 14.9607 17.0438L14.1618 12.506L17.4613 9.31034C17.5767 9.21261 17.6619 9.08417 17.7072 8.93992C17.7524 8.79568 17.7558 8.64155 17.717 8.49545ZM12.8037 11.6911C12.7112 11.7809 12.6418 11.8917 12.6015 12.0141C12.5612 12.1366 12.551 12.2669 12.572 12.3941L13.1472 15.7495L10.1433 14.1517C10.0266 14.094 9.89808 14.0639 9.76783 14.0639C9.63758 14.0639 9.50909 14.094 9.39234 14.1517L6.38845 15.7495L6.96366 12.3941C6.98463 12.2669 6.9745 12.1366 6.93416 12.0141C6.89382 11.8917 6.82445 11.7809 6.73198 11.6911L4.33526 9.29436L7.69866 8.80702C7.82808 8.78902 7.95111 8.73955 8.05697 8.66294C8.16282 8.58634 8.24827 8.48494 8.30583 8.36763L9.72788 5.32379L11.2298 8.37562C11.2874 8.49293 11.3728 8.59433 11.4787 8.67093C11.5845 8.74754 11.7076 8.79701 11.837 8.81501L15.2004 9.30235L12.8037 11.6911Z" fill="#FFF1BF"/>
<path d="M12.8037 11.6911C12.7112 11.7809 12.6418 11.8917 12.6015 12.0141C12.5612 12.1366 12.551 12.2669 12.572 12.3941L13.1472 15.7495L10.1433 14.1517C10.0266 14.094 9.89808 14.0639 9.76783 14.0639C9.63758 14.0639 9.50909 14.094 9.39234 14.1517L6.38845 15.7495L6.96366 12.3941C6.98463 12.2669 6.9745 12.1366 6.93416 12.0141C6.89382 11.8917 6.82445 11.7809 6.73198 11.6911L4.33526 9.29436L7.69866 8.80702C7.82808 8.78902 7.95111 8.73955 8.05697 8.66294C8.16282 8.58634 8.24827 8.48494 8.30583 8.36763L9.72788 5.32379L11.2298 8.37562C11.2874 8.49293 11.3728 8.59433 11.4787 8.67093C11.5845 8.74754 11.7076 8.79701 11.837 8.81501L15.2004 9.30235L12.8037 11.6911Z" fill="#FFF1BF"/>
</svg>
