<svg width="414" height="517" viewBox="0 0 414 517" fill="none" xmlns="http://www.w3.org/2000/svg">
<path fill-rule="evenodd" clip-rule="evenodd" d="M378 11C384.075 11 389 6.07513 389 0H414V517H0V0H25C25 6.07513 29.9249 11 36 11C42.0751 11 47 6.07513 47 0H63C63 6.07513 67.9249 11 74 11C80.0751 11 85 6.07513 85 0H101C101 6.07513 105.925 11 112 11C118.075 11 123 6.07513 123 0H139C139 6.07513 143.925 11 150 11C156.075 11 161 6.07513 161 0H177C177 6.07513 181.925 11 188 11C194.075 11 199 6.07513 199 0H215C215 6.07513 219.925 11 226 11C232.075 11 237 6.07513 237 0H253C253 6.07513 257.925 11 264 11C270.075 11 275 6.07513 275 0H291C291 6.07513 295.925 11 302 11C308.075 11 313 6.07513 313 0H329C329 6.07513 333.925 11 340 11C346.075 11 351 6.07513 351 0H367C367 6.07513 371.925 11 378 11Z" fill="white"/>
</svg>
