<svg width="24" height="24" viewBox="0 0 24 24" fill="none" xmlns="http://www.w3.org/2000/svg">
<path fill-rule="evenodd" clip-rule="evenodd" d="M12.4512 4.55698C11.3912 4.55698 10.5319 5.41627 10.5319 6.47626C10.5319 7.53624 11.3912 8.39554 12.4512 8.39554C13.5112 8.39554 14.3705 7.53624 14.3705 6.47626C14.3705 5.41627 13.5112 4.55698 12.4512 4.55698ZM8.61265 6.47626C8.61265 4.35628 10.3312 2.6377 12.4512 2.6377C14.5712 2.6377 16.2898 4.35628 16.2898 6.47626C16.2898 8.59623 14.5712 10.3148 12.4512 10.3148C10.3312 10.3148 8.61265 8.59623 8.61265 6.47626Z" fill="#FFC900"/>
<path fill-rule="evenodd" clip-rule="evenodd" d="M5.80691 17.0394C6.22933 17.9624 7.09355 18.6585 8.26201 19.1453C9.55523 19.6842 11.1023 19.9112 12.4512 19.9112C13.8001 19.9112 15.3472 19.6842 16.6404 19.1453C17.8089 18.6585 18.6731 17.9624 19.0955 17.0394C18.6597 16.1591 17.6451 15.4444 16.3051 14.9291C14.858 14.3725 13.2956 14.1534 12.4512 14.1534C11.6068 14.1534 10.0444 14.3725 8.59728 14.9291C7.25737 15.4444 6.24271 16.1591 5.80691 17.0394ZM7.9083 13.1377C9.57999 12.4948 11.3763 12.2341 12.4512 12.2341C13.5261 12.2341 15.3224 12.4948 16.9941 13.1377C18.6257 13.7653 20.4181 14.8669 21.0387 16.7288C21.1044 16.9258 21.1044 17.1388 21.0387 17.3358C20.4388 19.1356 18.9614 20.2575 17.3786 20.917C15.7929 21.5777 13.9812 21.8305 12.4512 21.8305C10.9212 21.8305 9.10954 21.5777 7.52383 20.917C5.941 20.2575 4.46366 19.1356 3.8637 17.3358C3.79804 17.1388 3.79804 16.9258 3.8637 16.7288C4.48433 14.8669 6.27671 13.7653 7.9083 13.1377Z" fill="#FFC900"/>
</svg>
