<svg width="23" height="30" viewBox="0 0 23 30" fill="none" xmlns="http://www.w3.org/2000/svg">
<path d="M0.561035 29.5862C0.561035 26.6364 1.73284 23.8074 3.81866 21.7216C5.90448 19.6358 8.73346 18.464 11.6833 18.464C14.6331 18.464 17.462 19.6358 19.5479 21.7216C21.6337 23.8074 22.8055 26.6364 22.8055 29.5862H20.0249C20.0249 27.3739 19.1461 25.2521 17.5817 23.6878C16.0173 22.1234 13.8956 21.2445 11.6833 21.2445C9.47091 21.2445 7.34917 22.1234 5.78481 23.6878C4.22044 25.2521 3.34159 27.3739 3.34159 29.5862H0.561035ZM11.6833 17.0737C7.07449 17.0737 3.34159 13.3408 3.34159 8.73205C3.34159 4.12328 7.07449 0.390381 11.6833 0.390381C16.292 0.390381 20.0249 4.12328 20.0249 8.73205C20.0249 13.3408 16.292 17.0737 11.6833 17.0737ZM11.6833 14.2932C14.7558 14.2932 17.2444 11.8046 17.2444 8.73205C17.2444 5.65953 14.7558 3.17094 11.6833 3.17094C8.61074 3.17094 6.12215 5.65953 6.12215 8.73205C6.12215 11.8046 8.61074 14.2932 11.6833 14.2932Z" fill="#FFC700"/>
</svg>
