<svg width="42" height="15" viewBox="0 0 42 15" fill="none" xmlns="http://www.w3.org/2000/svg">
<path d="M16.5171 0.728455L14.4375 14.5424H17.7635L19.8448 0.728455H16.5171Z" fill="white"/>
<path d="M11.6488 0.743994L8.39128 10.1647L8.04397 8.74226C7.40153 7.02834 5.57771 4.56689 3.43652 3.01565L6.4152 14.5357L9.93451 14.5289L15.1724 0.741089L11.6488 0.743994Z" fill="white"/>
<path d="M6.78136 1.73263C6.58803 0.891162 6.02771 0.640369 5.33223 0.610352H0.175585L0.132812 0.885353C4.14572 1.98729 6.80104 4.6424 7.90286 7.83493L6.78136 1.73263Z" fill="white"/>
<path d="M26.5857 3.3769C27.6738 3.35753 28.4625 3.62672 29.075 3.9056L29.3753 4.06537L29.8252 1.07135C29.1666 0.791509 28.134 0.491333 26.8457 0.491333C23.5591 0.491333 21.2425 2.36501 21.2246 5.05014C21.2032 7.03421 22.8747 8.14196 24.1374 8.80332C25.4334 9.48114 25.8679 9.91204 25.862 10.5172C25.8517 11.442 24.8286 11.8661 23.873 11.8661C22.5411 11.8661 21.8336 11.6579 20.7412 11.1428L20.3127 10.922L19.8447 14.0138C20.6232 14.4002 22.0595 14.7323 23.5505 14.7497C27.0468 14.7497 29.3188 12.8983 29.3428 10.0292C29.3573 8.45957 28.4702 7.26177 26.548 6.27893C25.3846 5.63791 24.6729 5.21185 24.6797 4.56502C24.6797 3.99081 25.2837 3.3769 26.5857 3.3769Z" fill="white"/>
<path d="M38.3607 0.74408H35.7909C34.9928 0.74408 34.3991 0.990031 34.0484 1.89056L29.1099 14.5503H32.6027C32.6027 14.5503 33.1724 12.848 33.3016 12.4752C33.6839 12.4752 37.0775 12.481 37.5608 12.481C37.6601 12.9632 37.9663 14.5503 37.9663 14.5503H41.0519L38.3607 0.74408ZM34.2588 9.6477C34.5326 8.85465 35.5839 5.78704 35.5839 5.78704C35.5659 5.82481 35.8551 4.98819 36.027 4.4682L36.2512 5.65923C36.2512 5.65923 36.8885 8.95729 37.0219 9.6477H34.2588Z" fill="white"/>
</svg>
